<?xml version="1.0" standalone="no"?>
<!DOCTYPE svg PUBLIC "-//W3C//DTD SVG 1.1//EN" "http://www.w3.org/Graphics/SVG/1.1/DTD/svg11.dtd" >
<svg xmlns="http://www.w3.org/2000/svg">
<metadata>Generated by IcoMoon</metadata>
<defs>
<font id="Ehub-icons" horiz-adv-x="1024">
<font-face units-per-em="1024" ascent="960" descent="-64" />
<missing-glyph horiz-adv-x="1024" />
<glyph unicode="&#x20;" horiz-adv-x="512" d="" />
<glyph unicode="&#xe900;" glyph-name="apps" d="M170.667 618.667h170.667v170.667h-170.667v-170.667zM426.667 106.667h170.667v170.667h-170.667v-170.667zM170.667 106.667h170.667v170.667h-170.667v-170.667zM170.667 362.667h170.667v170.667h-170.667v-170.667zM426.667 362.667h170.667v170.667h-170.667v-170.667zM682.667 789.333v-170.667h170.667v170.667h-170.667zM426.667 618.667h170.667v170.667h-170.667v-170.667zM682.667 362.667h170.667v170.667h-170.667v-170.667zM682.667 106.667h170.667v170.667h-170.667v-170.667z" />
<glyph unicode="&#xe901;" glyph-name="arrow-left" d="M796.058 522.138h-351.539l130.56 130.56c9.011 9.011 9.011 23.654 0 32.666l-54.886 54.886c-9.011 9.011-23.654 9.011-32.666 0l-275.968-275.866c-9.011-9.011-9.011-23.654 0-32.666l275.968-275.968c9.011-9.011 23.654-9.011 32.666 0l54.886 54.886c9.011 9.011 9.011 23.654 0 32.666l-140.186 140.083h361.165c12.8 0 23.142 10.342 23.142 23.142v92.467c0 12.8-10.342 23.142-23.142 23.142z" />
<glyph unicode="&#xe902;" glyph-name="arrow-right" d="M227.942 522.138h351.539l-130.56 130.56c-9.011 9.011-9.011 23.654 0 32.666l54.886 54.886c9.011 9.011 23.654 9.011 32.666 0l275.968-275.866c9.011-9.011 9.011-23.654 0-32.666l-275.968-275.968c-9.011-9.011-23.654-9.011-32.666 0l-54.886 54.886c-9.011 9.011-9.011 23.654 0 32.666l140.186 140.186h-361.165c-12.8 0-23.142 10.342-23.142 23.142v92.467c0 12.698 10.342 23.040 23.142 23.040z" />
<glyph unicode="&#xe903;" glyph-name="arrow-up" d="M437.555 163.942v351.539l-130.56-130.56c-9.011-9.011-23.654-9.011-32.666 0l-54.886 54.886c-9.011 9.011-9.011 23.654 0 32.666l275.968 275.968c9.011 9.011 23.654 9.011 32.666 0l275.968-275.968c9.011-9.011 9.011-23.654 0-32.666l-54.886-54.886c-9.011-9.011-23.654-9.011-32.666 0l-140.186 140.083v-361.165c0-12.8-10.342-23.142-23.142-23.142h-92.57c-12.698 0.102-23.040 10.547-23.040 23.245z" />
<glyph unicode="&#xe904;" glyph-name="crypto" d="M761.344 356.045c-7.578 20.48-18.125 38.4-31.334 54.067s-29.389 28.365-48.333 38.4-39.322 16.486-61.338 19.149v2.15c36.557 11.776 66.048 31.232 88.678 58.163 22.63 27.034 33.894 61.338 33.894 102.912 0 33.28-6.349 61.645-19.046 85.094-12.595 23.552-29.082 42.701-49.254 57.651-20.275 14.848-43.418 25.6-69.222 32.154-10.24 2.56-20.48 4.608-30.822 6.144v84.070h-85.299v-80.384h-37.786v80.384h-85.299v-80.384h-114.483v-735.232h114.381v-80.384h85.299v80.384h37.786v-80.384h85.299v85.606c9.83 1.434 19.661 3.174 29.389 5.222 32.154 6.861 60.723 18.534 85.606 34.816 24.986 16.179 44.954 37.683 60.314 64.307 15.258 26.726 22.835 60.109 22.835 100.25 0.102 23.45-3.686 45.568-11.264 65.843zM585.011 680.141c21.606-15.565 32.358-39.322 32.358-71.066 0-27.648-10.445-49.971-31.334-67.072-20.89-16.998-52.326-25.498-94.106-25.498h-114.688v186.982h103.629c47.821 0 82.534-7.782 104.141-23.347zM632.32 242.893c-9.933-14.131-22.63-25.088-37.888-32.666-15.36-7.578-32.051-12.493-50.381-14.541-18.33-2.15-35.328-3.174-51.302-3.174h-115.507v211.866h120.525c51.2 0 88.781-7.578 113.050-22.835 24.269-15.36 36.25-42.291 36.25-80.998 0.205-24.269-4.813-43.418-14.746-57.651z" />
<glyph unicode="&#xe905;" glyph-name="caret-down" d="M547.123 307.2l260.915 260.915c19.354 19.354 12.902 35.123-14.541 35.123h-562.995c-27.443 0-33.894-15.667-14.541-35.123l260.915-260.915c19.456-19.354 50.79-19.354 70.246 0z" />
<glyph unicode="&#xe906;" glyph-name="caret-left" d="M370.995 483.021l260.915 260.915c19.354 19.354 35.123 12.902 35.123-14.541v-562.995c0-27.443-15.77-33.894-35.123-14.541l-260.915 261.018c-19.354 19.354-19.354 50.79 0 70.144z" />
<glyph unicode="&#xe907;" glyph-name="caret-right" d="M652.493 483.123l-260.915 260.915c-19.354 19.456-35.123 12.902-35.123-14.541v-562.995c0-27.443 15.77-33.894 35.123-14.541l260.915 260.915c19.354 19.354 19.354 50.893 0 70.246z" />
<glyph unicode="&#xe908;" glyph-name="caret-up" d="M547.123 588.493l260.915-260.915c19.354-19.354 12.902-35.123-14.541-35.123h-562.995c-27.443 0-33.894 15.667-14.541 35.123l260.915 260.915c19.456 19.354 50.79 19.354 70.246 0z" />
<glyph unicode="&#xe909;" glyph-name="check-circled" d="M703.795 653.619c-3.891 3.686-9.933 3.482-13.619-0.41-85.094-90.317-169.984-180.326-255.181-270.746-3.686-3.891-9.626-3.994-13.414-0.205l-90.522 90.522c-3.789 3.789-9.83 3.789-13.619 0l-54.784-54.784c-3.789-3.789-3.789-9.83 0-13.619l161.894-161.894c3.789-3.789 9.83-3.686 13.414 0.205 107.622 114.176 215.552 228.557 323.686 343.245 3.686 3.891 3.482 9.933-0.41 13.619-19.251 18.125-38.298 36.045-57.446 54.067zM512 896c-247.398 0-448-200.602-448-448s200.602-448 448-448 448 200.602 448 448-200.602 448-448 448zM512 70.554c-208.384 0-377.446 169.062-377.446 377.446s169.062 377.446 377.446 377.446c208.384 0 377.446-169.062 377.446-377.446s-169.062-377.446-377.446-377.446z" />
<glyph unicode="&#xe90a;" glyph-name="close-circled" d="M720.282 602.317c6.144 6.246 6.144 16.486-0.102 22.733l-34.406 34.714c-6.144 6.246-16.179 6.144-22.426-0.102-46.49-47.411-92.979-94.72-140.083-142.643-6.144-6.246-16.179-6.246-22.426 0-46.899 47.616-93.594 95.027-140.186 142.541-6.144 6.246-16.179 6.246-22.323-0.102-11.264-11.674-22.528-23.347-33.997-35.226-6.042-6.349-6.042-16.589 0.205-22.835 45.466-46.285 92.16-93.901 139.571-142.131 6.144-6.246 6.144-16.486 0-22.733-47.002-47.821-93.901-95.539-140.39-142.848-6.144-6.246-6.042-16.486 0.102-22.63l34.509-34.611c6.246-6.246 16.282-6.246 22.528 0l140.083 142.234c6.144 6.246 16.179 6.246 22.426 0 46.694-47.514 93.082-94.822 140.083-142.438 6.144-6.246 16.179-6.246 22.426 0 11.571 11.674 22.835 23.245 34.304 34.816 6.144 6.246 6.144 16.486 0 22.733-46.080 46.899-92.672 94.413-140.083 142.643-6.144 6.246-6.144 16.486 0 22.835 46.899 47.923 93.696 95.642 140.186 143.053zM512 896c-247.398 0-448-200.602-448-448s200.602-448 448-448 448 200.602 448 448-200.602 448-448 448zM512 70.554c-208.384 0-377.446 169.062-377.446 377.446s169.062 377.446 377.446 377.446 377.446-169.062 377.446-377.446-169.062-377.446-377.446-377.446z" />
<glyph unicode="&#xe90b;" glyph-name="cloud" d="M880.742 505.344c-21.402 17.408-29.901 35.533-33.587 62.669-12.288 92.672-65.843 157.286-151.654 189.952-89.293 33.894-176.538 24.371-251.392-39.424-22.118-18.842-41.574-25.805-70.861-23.552-94.413 7.475-171.213-50.381-197.325-141.107-4.301-15.155-14.234-31.232-26.317-41.165-76.8-63.795-104.653-155.648-72.704-247.398 31.334-90.214 112.026-145.92 211.968-146.125 74.65-0.102 149.299 0 223.949 0 75.981 0 151.962-0.307 227.942 0.102 93.798 0.41 174.797 57.446 205.824 144.077 31.437 87.245 6.554 182.989-65.843 241.971zM920.269 281.395c-24.883-79.053-95.744-130.765-180.838-131.174-74.547-0.307-149.197-0.102-223.744-0.102-75.878 0-151.859-0.102-227.738 0-88.064 0.205-159.539 51.507-184.32 131.994-25.293 81.818 3.994 161.485 75.674 214.016 12.083 8.909 22.733 25.498 25.702 40.243 17.715 86.938 94.413 142.746 182.886 125.952 26.931-5.12 41.574-0.819 60.826 18.944 66.662 68.301 149.709 80.998 235.52 48.026 82.125-31.642 130.458-95.334 133.837-185.958 0.922-24.474 9.318-37.683 28.877-51.098 70.246-48.128 98.202-131.584 73.318-210.842zM801.28 474.829c-9.728 5.325-20.582 20.275-20.275 30.515 2.56 92.877-39.219 163.123-115.814 189.747-85.402 29.696-161.69 1.946-217.6-79.053-2.97-4.301-6.451-8.090-11.059-13.722-106.291 52.531-181.555 11.366-196.301-102.298-1.331-10.138-12.186-21.914-21.811-27.546-67.277-38.81-97.178-101.683-79.462-170.701 17.715-69.12 74.752-111.411 151.245-111.411 146.739-0.205 293.376-0.102 440.115 0 79.462 0.102 137.933 42.291 155.238 111.821 17.306 69.734-15.36 134.656-84.275 172.646z" />
<glyph unicode="&#xe90c;" glyph-name="clouds" d="M913.715 473.907c-48.435 47.104-105.984 60.621-170.291 36.966-12.083-4.403-16.896-4.71-22.426 9.011-36.557 90.931-115.2 146.125-208.077 150.323-42.598 20.89-93.491 27.136-145.203 21.197-106.086-12.39-189.645-96.154-209.203-209.715-1.126-6.861-0.205-15.462-8.397-18.944-18.842-7.987-33.587-19.251-45.773-32.768l-0.102 0.307s-88.986-84.275-1.946-181.248c2.458-2.765 4.813-5.632 7.475-8.294l1.126-1.229 0.102 0.205c21.197-20.275 48.23-32.461 81.408-35.533 23.142-2.15 92.16-1.843 135.27-1.638 24.576-0.512 49.254 0.922 73.83 0.205l280.781 0.41c42.701 0 81.408-1.024 119.91 0.307 68.096 2.355 117.248 35.226 144.691 97.485 25.805 58.88 13.005 128-33.178 172.954zM271.462 468.685c-1.126-6.554-0.205-14.746-8.090-18.022-17.92-7.578-32.051-18.33-43.725-31.232l-0.102 0.307s-84.89-80.384-1.843-173.056c2.355-2.662 4.608-5.325 7.066-7.885l1.126-1.229 0.102 0.205c20.173-19.354 45.978-31.027 77.619-33.894 4.403-0.41 8.806-0.41 13.107-0.717-24.166 0.307-51.098 0.614-54.682 1.024-31.642 2.867-57.446 14.541-77.619 33.894l-0.102-0.205-1.126 1.229c-2.56 2.458-4.71 5.222-7.066 7.885-83.046 92.672 1.843 173.056 1.843 173.056l0.102-0.307c11.674 12.902 25.702 23.654 43.725 31.232 7.885 3.277 6.963 11.571 8.090 18.022 18.739 108.339 98.509 188.314 199.68 200.090 24.781 2.867 50.483 4.096 74.138 1.024-10.752 0.102-21.504 0-32.563-1.229-101.376-11.878-181.043-91.853-199.68-200.192z" />
<glyph unicode="&#xe90d;" glyph-name="comment" d="M957.747 843.264c-4.096 25.805-16.794 37.581-42.598 39.424-11.366 0.922-22.63 1.331-33.997 1.331-247.706 0.41-494.899 0.41-742.502 0-13.619 0-27.136-1.331-40.346-3.584-18.534-3.174-28.058-16.282-31.744-33.997-1.331-9.933-2.765-19.968-2.765-29.901v-502.989c0-7.68 0.41-15.872 1.331-23.552 5.018-29.389 16.282-40.346 46.182-41.165 56.627-0.922 113.152-0.922 170.189-1.331h18.125v-207.77c0-9.933-0.41-20.787 10.854-25.805 11.366-5.427 18.534 1.843 26.214 9.011 79.258 72.397 158.003 144.896 237.67 216.883 5.018 4.506 13.619 7.27 20.787 7.27 97.792 0.922 195.584 0.41 293.376 0.922 13.107 0 26.726 1.331 39.834 3.584 16.794 3.174 25.805 14.438 28.57 30.822 1.331 9.933 2.765 20.378 2.765 30.822v504.218c0.307 8.602-0.614 17.203-1.946 25.805zM206.131 600.166h305.152v-68.813h-305.152v68.813zM700.109 390.042h-493.978v68.813h493.978v-68.813zM817.869 673.075h-611.738v68.403h611.635v-68.403z" />
<glyph unicode="&#xe90e;" glyph-name="logout" d="M430.507 294.827l60.16-60.16 213.333 213.333-213.333 213.333-60.16-60.16 110.080-110.507h-412.587v-85.333h412.587l-110.080-110.507zM810.667 832h-597.333c-47.36 0-85.333-38.4-85.333-85.333v-170.667h85.333v170.667h597.333v-597.333h-597.333v170.667h-85.333v-170.667c0-46.933 37.973-85.333 85.333-85.333h597.333c46.933 0 85.333 38.4 85.333 85.333v597.333c0 46.933-38.4 85.333-85.333 85.333z" />
<glyph unicode="&#xe90f;" glyph-name="expand" d="M956.723 89.395c-2.765 20.582-5.427 41.165-7.987 61.85-2.662 21.197-5.018 42.394-7.68 63.488l-8.704 69.939c-0.512 4.096-1.024 8.090-1.536 12.698-0.205 1.946-2.048 3.584-3.994 3.584h-80.282c-1.946 0-3.584-1.638-3.482-3.584 0.922-28.979 1.843-58.778 2.765-89.395 0.102-1.946-0.922-2.867-2.15-1.946-0.922 0.614-1.638 1.126-2.253 1.638l-141.517 108.339c-1.536 1.229-3.072 2.15-3.277 2.15s-1.843-0.717-3.584-1.741c-13.21-7.066-26.317-14.029-39.526-21.197-7.578-4.096-15.155-8.192-23.040-12.493-1.741-0.922-1.946-2.765-0.41-4.096 22.835-19.558 45.363-39.014 67.891-58.266 22.63-19.354 45.261-38.502 67.994-57.754 1.536-1.331 2.56-2.56 2.355-2.867s-1.946-0.41-3.994-0.307c-48.23 3.379-96.461 6.861-144.998 10.24-1.946 0.102-4.096-1.229-4.608-3.174-0.41-1.229-0.717-2.355-1.024-3.482l-18.944-68.198-0.307-0.717c-0.205-0.41-0.41-0.922-0.41-1.126s1.638-0.512 3.584-0.717l26.112-2.15 118.374-9.011c18.33-1.434 36.557-3.072 54.886-4.608l45.158-3.584c20.070-1.536 40.141-3.174 60.211-4.608 11.162-0.819 22.221-1.331 33.382-1.946 2.97-0.205 5.939-0.512 8.909-0.819h11.776c1.946 0 3.584 0.717 3.584 1.638s-0.205 3.277-0.614 5.222c-0.922 5.837-1.843 11.366-2.662 16.998zM429.261 95.027l-18.944 68.198c-0.307 1.126-0.614 2.253-1.024 3.482-0.614 1.946-2.662 3.277-4.608 3.174-48.538-3.482-96.768-6.861-144.998-10.24-1.946-0.102-3.789 0-3.994 0.307s0.922 1.536 2.355 2.867l67.994 57.754c22.63 19.251 45.158 38.707 67.891 58.266 1.536 1.331 1.331 3.174-0.41 4.096-7.885 4.301-15.462 8.397-23.040 12.493-13.107 7.066-26.317 14.131-39.526 21.197-1.741 0.922-3.379 1.741-3.584 1.741s-1.741-1.024-3.277-2.15l-5.837-4.506-135.68-103.834c-0.717-0.512-1.434-1.024-2.253-1.638-1.229-0.922-2.253 0-2.15 1.946 0.922 30.618 1.843 60.314 2.765 89.395 0.102 1.946-1.536 3.584-3.482 3.584h-80.282c-1.946 0-3.789-1.638-3.994-3.584-0.512-4.506-1.024-8.602-1.536-12.698l-8.704-69.939c-2.56-21.197-5.018-42.394-7.68-63.488-2.56-20.582-5.222-41.267-7.987-61.85-0.717-5.632-1.741-11.264-2.662-16.794-0.307-1.946-0.614-4.301-0.614-5.222s1.638-1.638 3.584-1.638h11.878c2.97 0.307 5.939 0.614 8.909 0.819 11.162 0.717 22.323 1.229 33.382 1.946 20.070 1.434 40.141 3.072 60.211 4.608 15.053 1.126 30.106 2.355 45.158 3.584l54.886 4.608c18.534 1.536 37.171 2.97 55.706 4.301l62.669 4.71c8.704 0.614 17.408 1.434 26.112 2.15 1.946 0.205 3.584 0.512 3.584 0.717s-0.205 0.717-0.41 1.126c-0.205 0-0.41 0.205-0.41 0.512zM594.739 800.87l18.944-68.198c0.307-1.126 0.614-2.253 1.024-3.482 0.614-1.946 2.662-3.277 4.608-3.174 48.538 3.482 96.768 6.861 144.998 10.24 1.946 0.102 3.789 0 3.994-0.307s-0.922-1.536-2.355-2.867l-67.994-57.754c-22.63-19.251-45.158-38.707-67.891-58.266-1.536-1.331-1.331-3.174 0.41-4.096 7.885-4.301 15.462-8.397 23.040-12.493 13.107-7.066 26.317-14.131 39.526-21.197 1.741-0.922 3.379-1.741 3.584-1.741s1.741 1.024 3.277 2.15l5.837 4.506 135.68 103.834c0.717 0.512 1.434 1.024 2.253 1.638 1.229 0.922 2.253 0 2.15-1.946-0.922-30.618-1.843-60.416-2.765-89.395-0.102-1.946 1.536-3.584 3.482-3.584h80.282c1.946 0 3.789 1.638 3.994 3.584 0.512 4.506 1.024 8.602 1.536 12.698l8.704 69.939c2.56 21.197 5.018 42.394 7.68 63.488 2.56 20.582 5.222 41.267 7.987 61.85 0.717 5.632 1.741 11.264 2.662 16.794 0.307 1.946 0.614 4.301 0.614 5.222s-1.638 1.638-3.584 1.638h-11.878c-2.97-0.307-5.939-0.614-8.909-0.819-11.162-0.717-22.323-1.229-33.382-1.946-20.070-1.434-40.141-3.072-60.211-4.608-15.053-1.126-30.106-2.355-45.158-3.584l-54.886-4.608c-18.534-1.536-37.171-2.97-55.706-4.301l-62.669-4.71c-8.704-0.614-17.408-1.434-26.112-2.15-1.946-0.205-3.584-0.512-3.584-0.717s0.205-0.717 0.41-1.126c0.205 0 0.41-0.205 0.41-0.512zM400.282 805.581l-118.374 9.011c-18.33 1.434-36.557 3.072-54.886 4.608l-45.158 3.584c-20.070 1.536-40.141 3.174-60.211 4.608-11.162 0.819-22.221 1.331-33.382 1.946-2.97 0.205-5.939 0.512-8.909 0.819h-11.776c-1.946 0-3.584-0.717-3.584-1.638s0.205-3.277 0.614-5.222c0.922-5.632 1.946-11.162 2.662-16.794 2.765-20.582 5.427-41.165 7.987-61.85 2.662-21.197 5.018-42.394 7.68-63.488l8.704-69.939c0.512-4.096 1.024-8.090 1.536-12.698 0.205-1.946 2.048-3.584 3.994-3.584h80.282c1.946 0 3.584 1.638 3.482 3.584-0.922 28.979-1.843 58.778-2.765 89.395-0.102 1.946 0.922 2.867 2.15 1.946 0.922-0.614 1.638-1.126 2.253-1.638l141.517-108.339c1.536-1.229 3.072-2.15 3.277-2.15s1.843 0.717 3.584 1.741l39.526 21.197c7.578 4.096 15.155 8.192 23.040 12.493 1.741 0.922 1.946 2.765 0.41 4.096-22.835 19.558-45.363 39.014-67.891 58.266-22.63 19.354-45.261 38.502-67.994 57.754-1.536 1.331-2.56 2.56-2.355 2.867s1.946 0.41 3.994 0.307c48.23-3.379 96.461-6.861 144.998-10.24 1.946-0.102 4.096 1.331 4.608 3.174 0.41 1.229 0.717 2.355 1.024 3.482l18.944 68.198 0.307 0.717c0.205 0.41 0.41 0.922 0.41 1.126s-1.638 0.512-3.584 0.717c-8.704 0.512-17.408 1.331-26.112 1.946z" />
<glyph unicode="&#xe910;" glyph-name="filter" d="M426.667 192h170.667v85.333h-170.667v-85.333zM128 704v-85.333h768v85.333h-768zM256 405.333h512v85.333h-512v-85.333z" />
<glyph unicode="&#xe911;" glyph-name="history" d="M554.667 832c-212.053 0-384-171.947-384-384h-128l165.973-165.973 2.987-5.973 172.373 171.947h-128c0 165.12 133.547 298.667 298.667 298.667s298.667-133.547 298.667-298.667-133.547-298.667-298.667-298.667c-82.347 0-157.013 33.707-210.773 87.893l-60.587-60.587c69.547-69.547 165.12-112.64 271.36-112.64 212.053 0 384 171.947 384 384s-171.947 384-384 384zM512 618.667v-213.333l182.613-108.373 30.72 51.627-149.333 88.747v181.333h-64z" />
<glyph unicode="&#xe912;" glyph-name="reddit-filled" d="M512 673.28c-248.443 0-450.56-126.525-450.56-307.2s202.117-327.68 450.56-327.68 450.56 147.005 450.56 327.68-202.117 307.2-450.56 307.2zM286.72 427.52c0 33.935 27.505 61.44 61.44 61.44s61.44-27.505 61.44-61.44c0-33.915-27.505-61.44-61.44-61.44s-61.44 27.525-61.44 61.44zM715.121 231.424c-2.417-3.441-61.010-84.48-203.121-84.48-142.131 0-200.704 81.039-203.121 84.48-6.492 9.257-4.26 22.036 4.997 28.549 9.236 6.492 21.934 4.28 28.467-4.895 2.191-3.052 50.196-67.174 169.656-67.174 121.078 0 169.144 66.396 169.595 67.072 6.472 9.236 19.292 11.51 28.549 4.977 9.236-6.492 11.469-19.272 4.977-28.529zM675.84 366.080c-33.915 0-61.44 27.525-61.44 61.44 0 33.935 27.525 61.44 61.44 61.44s61.44-27.505 61.44-61.44c0-33.915-27.525-61.44-61.44-61.44zM972.616 492.093c20.173 42.004 13.066 92.815-22.2 128.082-21.709 21.709-50.115 33.649-80.015 33.649-17.715 0-34.693-4.649-50.278-12.575 68.71-38.072 121.569-89.211 152.494-149.156zM203.899 641.249c-15.606 7.926-32.584 12.575-50.299 12.575-29.901 0-58.327-11.94-80.015-33.649-35.267-35.267-42.373-86.098-22.2-128.082 30.925 59.945 83.784 111.084 152.515 149.156zM839.68 714.24c-45.179 0-81.92 36.762-81.92 81.92s36.741 81.92 81.92 81.92 81.92-36.762 81.92-81.92-36.741-81.92-81.92-81.92zM716.8 796.16c0 8.643 0.922 17.080 2.621 25.211-28.16 7.7-43.254 23.757-57.815 39.547-16.261 17.633-34.714 37.642-67.686 37.642-43.090 0-93.655-33.526-101.294-184.648 6.431 0.164 12.861 0.328 19.374 0.328 7.229 0 14.377-0.164 21.524-0.369 4.874 90.788 26.685 143.729 60.396 143.729 14.397 0 22.344-7.946 37.581-24.453 17.756-19.251 41.124-43.909 86.528-53.35-0.737 5.366-1.229 10.813-1.229 16.364z" />
<glyph unicode="&#xe913;" glyph-name="feed" d="M35.942 411.136c-19.558-0.307-35.84-16.589-35.942-36.045-0.102-24.678 0-49.459 0-74.138 0-8.806 3.072-16.282 8.704-22.938 8.602-10.138 19.661-13.312 32.768-13.312h183.706v146.534l-189.235-0.102zM983.040 411.136h-702.157v-146.432c233.882 0 467.763 0.102 701.542 0.102 2.048 0 4.096 0 6.144 0 8.397 0.307 15.565 3.277 22.016 8.499 6.758 5.632 10.547 13.107 13.414 21.094v87.040c-0.307 0.307-0.614 0.41-0.717 0.717-6.861 20.48-18.534 28.979-40.243 28.979zM1007.104 844.083c-5.12 3.584-11.059 4.813-16.896 6.349h-709.325v-146.842c234.701 0.102 469.299 0.102 704 0.102h3.072c8.397-0.102 15.667 2.867 22.118 7.987 7.27 5.734 11.162 13.517 13.926 22.016v86.016c-2.867 10.035-8.090 18.432-16.896 24.371zM31.949 849.715c-19.866-3.584-31.949-17.92-31.949-38.195 0-23.347 0-46.694 0.102-70.144 0-2.662 0.102-5.427 0.512-8.090 2.56-14.95 17.818-29.696 37.683-29.696h186.88v146.842h-191.386c-0.614-0.205-1.126-0.614-1.843-0.717zM34.202 630.374c-19.354-1.331-34.099-16.998-34.202-36.557 0-24.371 0-48.742 0-73.216 0-2.355 0.205-4.71 0.717-7.066 3.891-17.715 18.842-29.389 37.376-29.389h187.085v146.432h-184.32c-2.253 0-4.506 0-6.656-0.205zM983.245 630.579h-702.362v-146.432h661.299c14.95 0 30.003 0 44.954 0 9.114 0 16.998 3.072 23.962 8.909 6.656 5.734 10.445 13.21 12.902 21.504v86.016c-0.205 0.205-0.614 0.41-0.717 0.717-6.656 20.685-18.432 29.286-40.038 29.286zM36.659 191.898c-20.787-0.512-36.557-16.691-36.557-37.478-0.102-24.064 0.102-48.128-0.102-72.192 0-9.933 3.584-18.227 10.342-25.395 8.499-9.114 19.354-11.571 31.539-11.571 61.133 0 122.266 0 183.398 0v146.637h-182.989c-1.946 0-3.789 0.102-5.632 0zM978.534 191.898h-697.651v-146.637c233.779 0 467.558 0.102 701.338 0.102 2.355 0 4.71 0.205 7.066 0.205 10.65 0.205 18.842 5.222 25.805 12.8 4.506 4.915 6.451 10.957 8.909 16.896v86.016c-9.523 24.371-18.842 30.618-45.466 30.618z" />
<glyph unicode="&#xe914;" glyph-name="money" d="M841.318 801.894l-117.453-109.568h-424.038l-117.862 109.568s58.573 82.022 155.136 92.774c94.515 10.445 127.386-47.616 174.694-49.869 47.206 2.355 80.179 60.314 174.694 49.869 96.666-10.752 154.829-92.774 154.829-92.774zM528.179 276.173v-82.534c12.493 1.946 22.733 6.758 30.618 14.541 7.782 7.885 11.674 17.203 11.674 27.648 0 9.318-3.174 17.51-9.933 24.576-6.656 6.656-17.51 11.981-32.358 15.77zM459.059 382.054c0-7.475 2.97-14.541 8.192-20.685 5.53-6.758 13.414-11.674 24.576-15.77v73.216c-9.933-2.662-17.818-7.578-23.654-14.336-5.939-6.963-9.114-14.234-9.114-22.426zM912.896 97.997s-25.702-97.997-143.155-97.997h-515.379c-117.862 0-143.565 97.997-143.565 97.997-76.902 339.763 157.184 523.776 157.184 523.776h487.731s234.086-184.013 157.184-523.776zM632.013 243.507c0 23.040-7.373 41.779-21.811 56.218-14.643 14.541-41.984 26.522-82.022 35.533v83.046c16.077-5.837 26.112-17.203 30.003-33.792l63.59 6.861c-4.403 21.094-14.643 38.298-30.106 50.79-15.667 12.493-36.966 20.173-63.488 23.040v20.992h-36.454v-20.992c-28.877-2.458-51.917-11.776-69.12-27.136-17.51-16.077-26.112-35.328-26.112-58.675 0-22.63 7.578-42.291 23.040-58.368 15.36-16.077 39.322-27.955 72.294-35.84v-88.678c-9.011 3.482-17.51 9.626-24.781 17.715-7.373 8.192-12.288 18.125-14.95 29.184l-65.536-5.837c5.018-27.955 16.691-49.254 34.714-64.717 18.125-15.155 41.37-24.269 70.554-27.136v-38.4h36.454v39.322c32.563 4.096 57.958 14.848 76.288 32.461 18.33 17.51 27.443 39.117 27.443 64.41z" />
<glyph unicode="&#xe915;" glyph-name="monitor-filled" d="M1024.070 189.044h-1024.070v687.675h1024.070zM26.978 216.022h970.114v633.719h-970.114zM42.098 831.9h937.165v-597.99h-937.165v597.99zM490.241 190.933h46.309v-125.32h-46.309v125.32zM695.933 66.105v-46.309h-370.505v46.309h370.505z" />
<glyph unicode="&#xe916;" glyph-name="monitor" d="M1024 203.776v662.016h-1024v-662.016h487.834v-123.29h-163.123v-49.766h374.579v49.766h-163.123v123.29h487.834zM28.979 836.915h966.144v-604.262h-966.144v604.262z" />
<glyph unicode="&#xe917;" glyph-name="more" d="M512 618.667c46.933 0 85.333 38.4 85.333 85.333s-38.4 85.333-85.333 85.333-85.333-38.4-85.333-85.333 38.4-85.333 85.333-85.333zM512 533.333c-46.933 0-85.333-38.4-85.333-85.333s38.4-85.333 85.333-85.333 85.333 38.4 85.333 85.333-38.4 85.333-85.333 85.333zM512 277.333c-46.933 0-85.333-38.4-85.333-85.333s38.4-85.333 85.333-85.333 85.333 38.4 85.333 85.333-38.4 85.333-85.333 85.333z" />
<glyph unicode="&#xe918;" glyph-name="notifications" d="M512 21.333c46.933 0 85.333 38.4 85.333 85.333h-170.667c0-46.933 37.973-85.333 85.333-85.333zM768 277.333v213.333c0 130.987-69.973 240.64-192 269.653v29.013c0 35.413-28.587 64-64 64s-64-28.587-64-64v-29.013c-122.453-29.013-192-138.24-192-269.653v-213.333l-85.333-85.333v-42.667h682.667v42.667l-85.333 85.333z" />
<glyph unicode="&#xe919;" glyph-name="play" d="M341.333 746.667v-597.333l469.333 298.667z" />
<glyph unicode="&#xe91a;" glyph-name="reddit" d="M704.614 414.515c2.355-5.939 3.379-11.981 3.379-18.125 0-12.186-4.198-24.064-11.264-33.792-6.963-9.523-16.896-16.998-28.57-20.275l-0.205-0.102h-0.205c-5.427-1.843-11.059-2.765-16.589-2.765-13.005 0-25.805 4.71-36.045 12.698-10.138 7.987-17.818 19.456-20.275 32.973v0.205c-0.717 3.482-1.126 6.963-1.126 10.445 0 11.776 3.994 23.040 10.65 32.358 6.554 9.318 15.872 16.691 26.726 20.48h0.205c6.144 2.253 12.698 3.379 19.046 3.379 11.674 0 23.245-3.584 32.973-10.035 9.626-6.349 17.408-15.77 21.299-27.341l0.102-0.205c-0.102 0.205-0.102 0.102-0.102 0.102zM668.774 270.131c-4.608 2.97-9.933 4.813-15.565 4.813-4.506 0-9.216-1.331-13.414-4.096-39.629-23.654-86.118-36.557-132.403-36.557-34.714 0-69.12 7.27-100.352 22.63l-0.41 0.205c-4.71 1.946-10.035 6.042-15.974 9.933-2.97 1.946-6.042 3.891-9.523 5.222-3.379 1.434-7.168 2.458-11.264 2.458-3.379 0-6.861-0.717-10.342-2.355l-0.512-0.205c-5.427-2.048-9.728-5.837-12.493-10.342-2.867-4.608-4.301-10.035-4.301-15.462 0-4.813 1.126-9.728 3.482-14.131 2.253-4.198 5.734-7.885 10.24-10.24 44.646-30.106 97.178-43.725 150.016-43.725 47.616 0 95.437 11.059 138.035 31.027l0.41 0.205c5.632 3.277 13.107 6.349 20.173 10.65 3.482 2.253 6.861 4.813 9.83 8.090 2.867 3.277 5.222 7.373 6.554 12.288 0.512 2.15 0.819 4.198 0.819 6.246 0 3.994-0.922 7.68-2.56 11.059-2.048 5.222-5.939 9.318-10.445 12.288zM355.328 342.528c0.102 0 0.205 0 0.307-0.102 5.734-2.048 11.571-3.072 17.408-3.072 14.541 0 28.57 5.939 39.322 15.667 10.65 9.728 17.92 23.45 17.92 39.117v1.331c0 0.717 0.102 1.434 0.102 2.253 0 15.565-7.168 29.286-17.715 39.117-10.547 9.728-24.678 15.77-39.219 15.77-3.891 0-7.885-0.41-11.776-1.331h-0.307c-19.251-3.994-36.147-18.33-42.394-37.99v-0.102c-1.741-5.427-2.662-10.957-2.662-16.486 0-12.083 3.994-23.757 10.854-33.485 6.758-9.523 16.486-16.998 28.058-20.48l0.102-0.205zM959.795 483.226c0.102-2.048 0.205-3.994 0.205-5.939 0-21.709-6.963-42.701-18.637-60.416-10.854-16.589-25.907-30.515-43.11-39.936 1.126-8.704 1.741-17.408 1.741-26.112 0-46.899-16.179-92.877-44.339-129.843h-0.102c-51.917-69.222-131.789-110.080-212.48-130.662h-0.102c-43.008-10.445-87.347-15.77-131.686-15.77-66.048 0-132.096 11.878-193.741 36.659v0.102h-0.102c-63.898 26.317-124.826 68.198-162.099 129.536-20.070 32.768-31.13 71.168-31.13 109.67 0 8.704 0.614 17.51 1.741 26.112-16.794 9.421-31.334 22.938-42.189 38.912-11.571 17.203-18.842 37.376-19.763 58.675v0.307c0 29.901 13.005 58.163 33.178 79.053s47.718 34.509 77.21 34.509h1.229c3.072 0.205 6.246 0.307 9.318 0.307 14.848 0 29.696-2.355 43.827-7.782l0.102-0.102h0.102c12.083-5.12 24.064-11.162 34.714-19.661 3.482 1.843 7.27 3.891 11.469 5.427 64.717 38.298 139.878 53.146 213.197 57.344 0.614 36.352 5.12 74.342 22.835 107.622 14.746 27.648 40.346 49.152 70.861 56.627l0.102 0.102h0.205c11.571 2.253 23.347 3.277 34.918 3.277 30.925 0 61.542-7.373 90.214-18.739 12.698 19.149 30.822 34.099 52.019 42.394l0.41 0.205c12.493 3.891 25.6 6.144 38.81 6.144 13.926 0 27.955-2.56 41.165-8.397l0.205-0.102c18.842-7.27 34.816-20.685 46.182-37.376 11.366-16.794 18.022-36.864 18.022-57.446 0-3.789-0.205-7.578-0.614-11.469v-0.307c-2.253-26.726-15.77-50.074-34.816-66.765-19.251-16.794-44.134-26.931-69.734-26.931-4.096 0-8.294 0.205-12.39 0.819-25.395 1.946-49.050 14.234-66.458 32.461s-28.672 42.598-28.672 68.915c0 1.229 0.102 2.56 0.205 3.789-23.859 10.65-49.152 19.456-74.24 19.354-3.686 0-7.27-0.205-10.957-0.614-18.842-1.843-36.352-13.722-44.851-30.72v-0.102c-12.902-25.088-15.462-54.374-15.872-83.456 72.192-4.71 144.794-22.016 208.384-58.573h0.102l0.922-0.512c1.229-0.717 3.482-1.946 5.427-2.97 4.403 3.584 9.011 7.168 14.234 10.342 19.354 12.902 42.189 19.251 65.024 19.251 10.138 0 20.275-1.331 30.208-3.789l0.819-0.205c23.245-5.939 44.339-19.354 60.211-37.376 15.872-18.125 26.522-41.062 28.57-65.843zM747.315 719.36c0-0.922 0-1.946 0.102-2.97v-0.205c0.512-12.493 6.349-24.166 15.36-32.87 9.011-8.602 20.992-13.926 33.178-14.029h0.307c0.922-0.102 1.741-0.102 2.662-0.102 12.288 0 24.474 5.325 33.69 13.824 9.216 8.602 15.258 20.378 15.667 32.973v0.307c0.102 0.922 0.102 1.843 0.102 2.867 0 13.005-6.042 25.395-15.565 34.611s-22.221 14.848-34.816 14.848c-4.096 0-8.090-0.512-12.083-1.741h-0.205c-10.342-2.662-20.070-9.114-27.136-17.613-7.066-8.602-11.264-19.046-11.264-29.901zM214.63 525.926c-9.626 4.506-19.661 7.68-29.491 7.68-1.638 0-3.277-0.102-5.018-0.307h-0.41c-14.131-0.41-28.467-6.554-39.117-16.486-10.752-9.83-17.818-23.142-18.33-37.888v-0.205c-0.102-1.229-0.102-2.355-0.102-3.482 0-9.011 2.765-17.818 7.475-25.805 3.482-5.939 8.090-11.366 13.21-16.077 16.384 36.25 42.291 66.97 71.782 92.57zM843.264 348.774c0 32.256-11.674 64.717-30.515 90.829-37.581 52.326-95.949 86.426-156.672 105.472l-0.41 0.102c-11.674 3.584-23.45 6.758-35.226 9.421-35.43 8.090-71.782 12.083-108.134 12.083-48.742 0-97.587-7.168-144.282-21.606-60.621-19.251-119.194-53.146-156.672-105.677-19.046-26.214-30.208-58.778-30.208-91.136 0-11.878 1.536-23.859 4.608-35.43 6.861-26.010 20.173-49.254 37.478-69.53s38.502-37.581 60.826-51.712c4.915-3.072 9.933-5.939 14.95-8.806 64.819-36.147 139.366-52.019 213.402-52.019 12.493 0 25.088 0.41 37.581 1.331 74.547 6.144 149.402 28.16 210.022 73.114 19.251 14.234 37.069 31.437 51.2 51.098s24.576 41.574 29.184 65.331v0.102c1.946 8.909 2.867 17.92 2.867 27.034zM902.144 477.184c0 7.885-1.843 15.667-5.734 22.938l-0.102 0.102v0.102c-5.222 10.854-13.517 18.944-23.45 24.576s-21.606 8.499-33.28 8.499c-10.547 0-20.992-2.355-30.31-7.066 29.594-25.702 55.603-56.627 72.397-92.979 5.427 4.71 10.035 10.445 13.414 16.896 4.506 8.294 7.066 17.715 7.066 26.931z" />
<glyph unicode="&#xe91b;" glyph-name="refresh" d="M921.395 392.090h-43.213c-19.354 0-37.376-15.565-42.598-34.202-39.219-141.722-169.37-245.76-323.789-245.76-105.267 0-199.475 48.435-261.018 124.518-12.186 15.053-9.011 38.912 5.222 52.019l86.835 79.77c14.234 13.107 10.138 23.654-9.216 23.654h-234.598c-19.354 0-35.021-15.667-35.021-35.021v-210.022c0-19.354 11.571-24.371 25.702-11.264l31.334 28.877c14.234 13.107 34.714 10.854 47.206-3.994 82.227-98.202 205.722-160.666 343.552-160.666 216.576 0 397.005 153.6 438.886 357.581 3.994 18.944-9.933 34.509-29.286 34.509zM935.219 759.091l-30.618-30.515c-13.722-13.619-33.587-11.776-45.875 3.174-82.125 100.25-207.155 164.25-346.931 164.25-216.166 0-396.902-153.293-438.579-357.581-3.891-18.944 10.035-34.611 29.389-34.611h43.213c19.354 0 37.376 15.462 42.496 34.099 39.219 142.131 169.37 245.965 323.482 245.965 109.158 0 206.029-51.712 267.469-132.198 11.776-15.36 8.602-39.936-5.018-53.555l-69.427-69.53c-13.619-13.722-9.114-24.781 10.24-24.781h210.022c19.354 0 35.021 15.667 35.021 35.021v210.022c-0.102 19.354-11.162 23.962-24.883 10.24z" />
<glyph unicode="&#xe91c;" glyph-name="search" d="M661.333 362.667h-33.707l-11.947 11.52c41.813 48.64 66.987 111.787 66.987 180.48 0 153.173-124.16 277.333-277.333 277.333s-277.333-124.16-277.333-277.333 124.16-277.333 277.333-277.333c68.693 0 131.84 25.173 180.48 66.987l11.52-11.947v-33.707l213.333-212.907 63.573 63.573-212.907 213.333zM405.333 362.667c-106.24 0-192 85.76-192 192s85.76 192 192 192 192-85.76 192-192-85.76-192-192-192z" />
<glyph unicode="&#xe91d;" glyph-name="settings" d="M816.64 407.893c1.707 12.8 2.56 26.027 2.56 40.107 0 13.653-0.853 27.307-2.987 40.107l86.613 67.413c7.68 5.973 9.813 17.493 5.12 26.027l-81.92 141.653c-5.12 9.387-15.787 12.373-25.173 9.387l-101.973-40.96c-21.333 16.213-43.947 29.867-69.12 40.107l-15.36 108.373c-1.707 10.24-10.24 17.493-20.48 17.493h-163.84c-10.24 0-18.347-7.253-20.053-17.493l-15.36-108.373c-25.173-10.24-48.213-24.32-69.12-40.107l-101.973 40.96c-9.387 3.413-20.053 0-25.173-9.387l-81.493-141.653c-5.12-8.96-3.413-20.053 5.12-26.027l86.613-67.413c-2.133-12.8-3.84-26.88-3.84-40.107s0.853-27.307 2.987-40.107l-86.613-67.413c-7.68-5.973-9.813-17.493-5.12-26.027l81.92-141.653c5.12-9.387 15.787-12.373 25.173-9.387l101.973 40.96c21.333-16.213 43.947-29.867 69.12-40.107l15.36-108.373c2.133-10.24 10.24-17.493 20.48-17.493h163.84c10.24 0 18.773 7.253 20.053 17.493l15.36 108.373c25.173 10.24 48.213 23.893 69.12 40.107l101.973-40.96c9.387-3.413 20.053 0 25.173 9.387l81.92 141.653c5.12 9.387 2.987 20.053-5.12 26.027l-85.76 67.413zM512 294.4c-84.48 0-153.6 69.12-153.6 153.6s69.12 153.6 153.6 153.6 153.6-69.12 153.6-153.6-69.12-153.6-153.6-153.6z" />
<glyph unicode="&#xe91e;" glyph-name="sunrise" d="M512.512 616.55c-105.779 0.205-191.488-84.685-191.693-189.85 0-9.523 0.717-18.944 2.048-28.16h377.651c1.331 8.909 2.048 18.125 2.048 27.341 0.205 105.165-84.89 190.464-190.054 190.669zM698.573 540.262c3.379-10.957 14.336-19.149 25.907-19.251 4.301-0.205 8.499 0.717 12.186 2.765 24.781 14.131 49.664 28.058 74.138 42.701 12.493 7.475 15.77 23.45 8.806 35.84-7.066 12.493-22.323 18.33-35.021 11.469-25.702-13.926-50.995-28.672-75.981-43.725-10.035-5.939-13.414-18.637-10.035-29.798zM517.632 640.614c15.258 0.102 27.136 12.186 27.238 28.058 0.102 13.312 0 26.726 0 40.038v40.755c-0.307 15.36-12.083 27.238-27.136 27.341-15.36 0.102-27.443-11.878-27.546-27.648-0.102-26.931-0.102-53.862 0-80.794 0-15.667 12.186-27.75 27.443-27.75zM184.934 398.541c13.619-0.102 27.238 0 40.755 0 13.312 0 26.726-0.102 40.038 0 15.36 0.102 27.034 11.059 27.648 25.907 0.614 15.053-10.445 28.058-26.010 28.365-28.16 0.614-56.218 0.614-84.378 0-15.053-0.307-26.624-13.414-26.112-27.75 0.512-14.95 12.493-26.419 28.058-26.522zM730.214 425.165c0.41-15.053 12.493-26.522 27.955-26.624 13.619-0.102 27.238 0 40.755 0 13.312 0 26.726-0.102 40.038 0 15.36 0.102 27.034 11.059 27.648 25.907 0.614 15.053-10.445 28.058-26.010 28.365-28.16 0.614-56.218 0.614-84.378 0-14.95-0.205-26.419-13.312-26.010-27.648zM637.542 605.286c9.523 0.102 17.715 3.686 22.528 11.878 14.643 24.474 29.082 49.152 42.906 74.035 6.963 12.595 1.638 28.16-10.547 35.328-12.39 7.168-28.57 4.403-36.045-7.885-14.95-24.576-29.594-49.357-43.213-74.752-9.523-17.408 4.403-38.502 24.371-38.605zM365.261 624.435c5.222-8.909 13.21-13.619 23.757-13.517 21.094 0.102 33.997 21.709 23.654 40.448-13.312 23.962-27.136 47.616-41.062 71.066-8.090 13.619-24.166 17.408-37.274 9.728s-17.613-23.552-9.933-37.171c13.414-23.654 27.136-47.104 40.858-70.554zM215.142 564.531c23.142-13.619 46.49-26.931 69.837-40.346 4.403-2.56 9.011-3.789 12.595-3.686 13.722 0.102 24.474 8.090 27.75 19.456 3.379 12.083-1.024 24.371-12.083 30.925-23.552 13.926-47.206 27.546-71.066 40.96-13.926 7.885-30.208 3.174-37.683-10.035-7.885-13.517-3.584-28.979 10.65-37.274zM915.866 209.408c-41.574 2.765-68.608 25.907-89.907 57.856-10.035 15.155-20.89 27.443-38.912 32.051h-13.619c-17.306-5.12-29.082-16.486-37.581-32.154-5.018-9.421-12.39-17.306-19.763-24.883-20.89-21.197-44.749-32.256-68.813-32.666v0.102c-18.842-0.205-36.659 5.837-53.043 17.818-3.994 2.97-7.885 6.144-11.674 9.421 18.944 4.403 29.082 21.299 18.33 35.123l-60.928 78.541c-12.493 16.077-43.725 16.077-56.32 0l-60.928-78.541c-10.854-13.926-0.512-30.925 18.739-35.226-3.686-3.277-7.578-6.349-11.571-9.318-16.384-11.981-34.202-18.125-53.043-17.818v-0.102c-24.064 0.307-47.923 11.366-68.813 32.666-7.475 7.578-14.746 15.462-19.763 24.883-8.397 15.667-20.275 27.034-37.581 32.154h-13.619c-18.022-4.608-28.877-16.998-38.912-32.051-21.299-32.051-48.333-55.091-89.907-57.856-35.123-2.355-53.555-34.816-39.322-64.307 9.626-19.866 29.082-28.16 57.037-24.883 41.267 4.915 77.21 21.504 107.11 50.278 8.294 8.090 12.8 6.656 20.685-0.41 75.571-67.584 171.418-67.994 247.706-0.717 4.301 3.789 7.475 5.734 10.65 5.939 3.174-0.205 6.349-2.15 10.65-5.939 76.288-67.277 172.032-66.867 247.706 0.717 7.885 6.963 12.288 8.397 20.685 0.41 29.798-28.774 65.741-45.363 107.11-50.278 27.955-3.379 47.411 4.915 57.037 24.883 14.131 29.389-4.301 61.952-39.424 64.307z" />
<glyph unicode="&#xe91f;" glyph-name="sunset" d="M512.512 641.638c-105.779 0.205-191.488-84.685-191.693-189.85 0-9.523 0.717-18.944 2.048-28.16h377.651c1.331 8.909 2.048 18.125 2.048 27.341 0.205 105.267-84.89 190.464-190.054 190.669zM698.573 565.35c3.379-10.957 14.336-19.149 25.907-19.251 4.301-0.205 8.499 0.717 12.186 2.765 24.781 14.131 49.664 28.058 74.138 42.701 12.493 7.475 15.77 23.45 8.806 35.84-7.066 12.493-22.323 18.33-35.021 11.469-25.702-13.926-50.995-28.672-75.981-43.725-10.035-5.939-13.414-18.637-10.035-29.798zM517.632 665.702c15.258 0.102 27.136 12.186 27.238 28.058 0.102 13.312 0 26.726 0 40.038v40.755c-0.307 15.36-12.083 27.238-27.136 27.341-15.36 0.102-27.443-11.878-27.546-27.648-0.102-26.931-0.102-53.862 0-80.794 0-15.667 12.186-27.75 27.443-27.75zM184.934 423.731c13.619-0.102 27.238 0 40.755 0 13.312 0 26.726-0.102 40.038 0 15.36 0.102 27.034 11.059 27.648 25.907 0.614 15.053-10.445 28.058-26.010 28.365-28.16 0.614-56.218 0.614-84.378 0-15.053-0.307-26.624-13.414-26.112-27.75 0.512-15.053 12.493-26.522 28.058-26.522zM730.214 450.253c0.41-15.053 12.493-26.522 27.955-26.624 13.619-0.102 27.238 0 40.755 0 13.312 0 26.726-0.102 40.038 0 15.36 0.102 27.034 11.059 27.648 25.907 0.614 15.053-10.445 28.058-26.010 28.365-28.16 0.614-56.218 0.614-84.378 0-14.95-0.205-26.419-13.312-26.010-27.648zM637.542 630.374c9.523 0.102 17.715 3.686 22.528 11.878 14.643 24.474 29.082 49.152 42.906 74.138 6.963 12.595 1.638 28.16-10.547 35.328-12.39 7.168-28.57 4.403-36.045-7.885-14.95-24.576-29.594-49.357-43.213-74.752-9.523-17.51 4.403-38.605 24.371-38.707zM365.261 649.626c5.222-8.909 13.21-13.619 23.757-13.517 21.094 0.102 33.997 21.709 23.654 40.448-13.312 23.962-27.136 47.616-41.062 71.066-8.090 13.619-24.166 17.408-37.274 9.728s-17.613-23.552-9.933-37.171c13.414-23.757 27.136-47.206 40.858-70.554zM215.142 589.619c23.142-13.619 46.49-26.931 69.837-40.346 4.403-2.56 9.011-3.789 12.595-3.686 13.722 0.102 24.474 8.090 27.75 19.456 3.379 12.083-1.024 24.371-12.083 30.925-23.552 13.926-47.206 27.546-71.066 40.96-13.926 7.885-30.208 3.174-37.683-10.035-7.885-13.517-3.584-28.979 10.65-37.274zM955.187 328.806c-9.626 19.866-29.082 28.16-57.037 24.883-41.267-4.915-77.21-21.504-107.11-50.278-8.294-8.090-12.8-6.656-20.685 0.41-75.571 67.584-171.418 67.994-247.706 0.717-4.301-3.789-7.475-5.734-10.65-5.939-3.174 0.205-6.349 2.15-10.65 5.939-76.288 67.277-172.032 66.867-247.706-0.717-7.885-6.963-12.288-8.397-20.685-0.41-29.798 28.774-65.741 45.363-107.11 50.278-27.955 3.379-47.411-4.915-57.037-24.883-14.234-29.389 4.198-61.952 39.322-64.307 41.574-2.765 68.608-25.907 89.907-57.856 10.035-15.155 20.89-27.443 38.912-32.051h13.619c17.306 5.12 29.082 16.486 37.581 32.154 5.018 9.421 12.39 17.306 19.763 24.883 20.89 21.197 44.749 32.256 68.813 32.666v-0.102c18.842 0.205 36.659-5.837 53.043-17.818 9.933-7.27 18.944-15.565 26.624-24.986h-5.12c-24.986 0-40.653-20.173-28.16-36.25l60.928-78.541c12.493-16.077 43.725-16.077 56.32 0l60.928 78.541c12.493 16.077-3.174 36.25-28.16 36.25h-5.632c7.68 9.421 16.691 17.715 26.624 24.986 16.384 11.981 34.202 18.125 53.043 17.818v0.102c24.064-0.307 47.923-11.366 68.813-32.666 7.475-7.578 14.746-15.462 19.763-24.883 8.397-15.667 20.275-27.034 37.581-32.154h13.619c18.022 4.608 28.877 16.998 38.912 32.051 21.299 32.051 48.333 55.091 89.907 57.856 35.226 2.355 53.658 34.816 39.424 64.307z" />
<glyph unicode="&#xe920;" glyph-name="thumbs-down" d="M196.301 364.646c-32.768-0.102-65.434-0.102-98.202 0-24.474 0-34.099 9.626-34.099 33.997v430.694c0 22.016 10.65 32.768 32.563 32.87 33.382 0.205 66.867 0.102 100.25 0 22.528-0.102 33.075-10.752 33.075-33.382 0.102-143.565 0.102-287.13 0-430.694 0.102-23.962-9.523-33.382-33.587-33.485zM851.763 335.462h-275.149c0.205-2.15 0.41-3.789 0.819-5.325 10.65-51.405 19.354-103.117 19.558-155.853 0.205-33.587-2.15-66.765-16.691-97.69-9.011-19.456-21.606-35.738-43.725-41.472-22.835-5.939-39.731 2.867-43.418 22.835-2.56 14.438-5.12 28.774-6.758 43.315-3.379 32.461-11.981 62.669-34.714 87.45-13.005 14.438-24.678 30.208-38.195 44.134-32.256 33.485-57.754 71.373-75.571 114.381-3.584 8.499-7.987 16.486-12.595 24.474-7.782 13.619-19.968 19.866-35.328 20.787-16.179 0.922-24.371 6.656-29.082 22.221-2.15 7.475-2.867 15.462-2.867 23.245-0.205 117.043-0.102 234.086-0.102 351.13 0 6.042 0.307 12.186 1.229 18.33 2.867 18.022 14.029 27.341 32.154 27.443 7.168 0.102 14.438 0.205 21.606 0.614 27.853 1.331 55.398 4.813 82.739 11.469 28.16 6.861 56.013 15.77 85.504 15.77h228.147c1.741 0 3.379 0 5.12-0.102 52.326-2.662 94.208-45.363 95.539-98.099 27.955-19.558 46.49-52.019 46.49-88.781v-1.946c0-2.97-0.205-5.939-0.41-8.909 3.584-2.662 6.963-5.325 10.138-8.294 21.299-19.763 34.611-47.923 34.611-79.36v-1.946c0-10.752-1.638-20.992-4.608-30.822 37.478-16.998 63.693-54.682 63.693-98.509v-1.946c0.102-60.109-48.333-108.544-108.134-108.544z" />
<glyph unicode="&#xe921;" glyph-name="thumbs-up" d="M196.301 530.842c-32.768 0.102-65.434 0.102-98.202 0-24.474 0-34.099-9.626-34.099-33.997v-430.694c0-22.016 10.65-32.768 32.563-32.87 33.382-0.205 66.867-0.102 100.25 0 22.528 0.102 33.075 10.752 33.075 33.382 0.102 143.565 0.102 287.13 0 430.694 0.102 23.962-9.523 33.382-33.587 33.485zM851.763 560.026h-275.149c0.205 2.15 0.41 3.789 0.819 5.325 10.65 51.405 19.354 103.117 19.558 155.853 0.205 33.587-2.15 66.765-16.691 97.69-9.011 19.456-21.606 35.738-43.725 41.472-22.835 5.939-39.731-2.867-43.418-22.835-2.56-14.438-5.12-28.774-6.758-43.315-3.379-32.461-11.981-62.669-34.714-87.45-13.005-14.438-24.678-30.208-38.195-44.134-32.256-33.485-57.754-71.373-75.571-114.381-3.584-8.499-7.987-16.486-12.595-24.474-7.782-13.619-19.968-19.866-35.328-20.787-16.179-0.922-24.371-6.656-29.082-22.221-2.15-7.475-2.867-15.462-2.867-23.245-0.205-117.043-0.102-234.086-0.102-351.13 0-6.042 0.307-12.186 1.229-18.33 2.867-18.022 14.029-27.341 32.154-27.443 7.168-0.102 14.438-0.205 21.606-0.614 27.853-1.331 55.398-4.813 82.739-11.469 28.16-6.861 56.013-15.77 85.504-15.77h228.147c1.741 0 3.379 0 5.12 0.102 52.326 2.662 94.208 45.363 95.539 98.099 27.955 19.558 46.49 52.019 46.49 88.781v1.946c0 2.97-0.205 5.939-0.41 8.909 3.584 2.662 6.963 5.325 10.138 8.294 21.299 19.763 34.611 47.923 34.611 79.36v1.946c0 10.752-1.638 20.992-4.608 30.822 37.478 16.998 63.693 54.682 63.693 98.509v1.946c0.102 60.109-48.333 108.544-108.134 108.544z" />
<glyph unicode="&#xe922;" glyph-name="translate" d="M549.12 317.013l-108.373 107.093 1.28 1.28c74.24 82.773 127.147 177.92 158.293 278.613h125.013v85.333h-298.667v85.333h-85.333v-85.333h-298.667v-84.907h476.587c-28.587-82.347-73.813-160.427-135.253-228.693-39.68 43.947-72.533 92.16-98.56 142.933h-85.333c31.147-69.547 73.813-135.253 127.147-194.56l-217.173-214.187 60.587-60.587 213.333 213.333 132.693-132.693 32.427 87.040zM789.333 533.333h-85.333l-192-512h85.333l47.787 128h202.667l48.213-128h85.333l-192 512zM677.547 234.667l69.12 184.747 69.12-184.747h-138.24z" />
<glyph unicode="&#xe923;" glyph-name="twitch-filled" d="M88.38 960l-66.145-177.134v-713.945h244.859v-133.19h133.413l133.413 133.635h199.779l267.504 266.603v624.031zM940.5 379.082l-171.377-169.691h-260.084l-142.073-140.739v141.043h-215.766v683.026h789.299zM177.93 875.587v-642.978h201.149v-132.757l132.453 132.453h242.471l159.767 159.756v483.527zM511.122 433.137h-88.778v266.825h88.778zM757.023 433.137h-88.778v266.825h88.778z" />
<glyph unicode="&#xe924;" glyph-name="twitch" d="M142.029 895.898l-58.266-155.853v-623.002h214.221v-117.043h116.736l116.736 117.043h175.309l233.574 233.472v545.382h-798.31zM862.618 389.427l-136.602-135.987h-214.016l-116.736-116.736v116.736h-175.309v564.634h642.662v-428.646zM434.074 662.221h77.926v-233.677h-77.926zM648.192 662.221h77.824v-233.882h-77.824z" />
<glyph unicode="&#xe925;" glyph-name="add" d="M965.427 594.227h-307.2v307.302c0 32.154-26.317 58.47-58.47 58.47h-175.514c-32.154 0-58.573-26.317-58.573-58.47v-307.302h-307.2c-32.154 0-58.47-26.317-58.47-58.47v-175.514c0-32.154 26.317-58.47 58.47-58.47h307.2v-307.302c0-32.051 26.419-58.47 58.573-58.47h175.514c32.154 0 58.47 26.419 58.47 58.47v307.302h307.2c32.256 0 58.573 26.317 58.573 58.47v175.514c0 32.154-26.317 58.47-58.573 58.47z" />
<glyph unicode="&#xe926;" glyph-name="delete" d="M818.893 676.147c-99.738 0.512-199.475 0.102-299.11 0.102-105.472 0-211.046 0.717-316.518-0.41-52.634-0.512-65.126-14.336-58.061-65.741 27.853-202.854 56.934-405.504 85.709-608.154 7.68-54.272 21.094-65.741 75.981-65.843 141.619-0.205 283.238-0.205 424.858-0.102 60.826 0 74.547 15.053 81.715 74.957 23.142 194.765 47.206 389.427 72.499 583.885 8.806 67.277 0 80.896-67.072 81.306zM354.406 43.11c-34.406-4.198-47.309 23.45-50.79 52.531-16.691 140.186-32.358 280.576-48.538 420.762-3.174 27.853 5.018 51.405 33.997 56.218 31.949 5.325 47.514-17.408 51.302-45.773 10.957-82.842 20.48-165.888 30.31-248.832 6.758-57.242 13.21-114.483 19.763-171.725 3.072-30.106-1.229-58.982-36.045-63.181zM560.128 96.051c-0.102-28.57-11.981-54.477-43.418-53.965-33.792 0.614-43.008 27.136-42.701 58.163 0.717 69.12 0.205 138.342 0.205 207.462h-0.717c0 69.12 0.307 138.342-0.102 207.462-0.205 29.696 4.915 58.47 40.038 60.314 35.328 1.843 45.568-26.522 45.773-55.91 1.126-141.107 1.229-282.317 0.922-423.526zM782.234 512.512c-16.896-140.186-34.611-280.166-52.736-420.25-3.686-28.262-18.739-52.531-49.869-48.026-33.485 4.915-39.219 32.358-35.021 63.078 9.421 68.506 16.998 137.216 25.805 205.824s17.818 137.114 26.112 205.824c3.584 29.491 12.288 57.344 47.411 54.784 35.226-2.56 41.779-32.051 38.298-61.235zM434.688 871.424c17.203 85.914 26.112 94.822 83.763 85.811 98.099-15.36 100.659-18.534 87.859-114.074 75.776-13.414 151.654-27.955 227.942-39.936 33.075-5.222 62.771-12.902 57.139-53.862-6.042-43.827-41.574-37.786-71.27-32.87-176.128 29.491-352.154 60.211-528.179 90.522-38.298 6.656-76.493 14.336-114.995 20.070-30.925 4.608-48.742 20.685-43.418 52.122 5.53 32.256 30.208 39.526 59.29 34.509 80.691-13.824 161.28-28.16 241.869-42.291z" />
<glyph unicode="&#xe927;" glyph-name="edit" d="M0-23.45c28.467 97.69 56.832 195.379 85.299 293.069 2.253 7.782 4.608 15.565 6.656 23.347 3.277 11.776 9.421 21.299 18.842 29.184 8.806 7.27 16.589 15.974 24.678 24.064 133.427 132.198 266.854 264.397 400.179 396.698 3.072 3.072 5.734 6.554 7.885 9.216 18.125-18.227 35.123-35.328 54.067-54.374-2.048-1.434-6.042-3.482-9.114-6.554-138.24-137.933-276.378-275.866-414.31-414.106-4.915-5.018-9.011-11.878-10.957-18.637-16.589-54.784-32.358-109.875-48.742-164.864-2.048-6.861-1.024-11.162 4.198-15.872 8.499-7.68 15.974-16.486 24.576-24.064 2.97-2.56 8.602-4.506 12.186-3.584 55.091 15.77 110.080 31.846 164.966 48.435 4.71 1.434 9.114 5.427 12.8 9.216 140.186 139.776 280.166 279.757 420.147 419.635 2.662 2.662 4.915 5.632 6.451 7.373 19.866-19.866 39.117-39.117 60.211-60.211-0.922-0.614-4.608-2.15-7.168-4.71-138.035-136.704-276.275-273.101-413.594-410.522-19.149-19.251-39.936-31.13-65.638-38.4-91.136-25.805-181.862-53.043-272.794-79.77-6.042-1.741-12.186-3.379-18.227-5.12h-8.192c-4.403 1.946-8.909 3.686-13.312 5.734-12.288 5.734-16.486 17.408-21.094 28.774v6.042zM275.354 146.227c-2.662 16.998-5.53 32.563-7.373 48.128-0.922 7.373-3.891 10.342-11.059 11.674-17.51 3.379-34.816 7.782-50.995 11.366 145.203 145.51 290.406 291.123 434.688 435.814 23.040-23.040 47.104-47.002 70.349-70.144-143.77-144.179-288.87-289.69-435.61-436.838zM693.555 894.362c13.107 12.8 26.214 26.419 40.243 39.117 40.243 36.25 92.672 35.43 131.891-2.867 43.315-42.189 86.016-84.89 128.205-128.205 39.936-40.858 39.322-95.539-0.512-136.294-11.981-12.288-24.371-24.269-35.84-35.533-87.654 87.552-175.206 175.002-263.987 263.782zM586.752 797.696c19.866 18.637 40.243 37.786 59.597 56.013 91.75-91.75 182.989-183.091 275.046-275.149-19.149-17.92-39.731-37.274-59.597-55.91l-275.046 275.046z" />
<glyph unicode="&#xe928;" glyph-name="video-library" d="M170.667 704h-85.333v-597.333c0-46.933 38.4-85.333 85.333-85.333h597.333v85.333h-597.333v597.333zM853.333 874.667h-512c-46.933 0-85.333-38.4-85.333-85.333v-512c0-46.933 38.4-85.333 85.333-85.333h512c46.933 0 85.333 38.4 85.333 85.333v512c0 46.933-38.4 85.333-85.333 85.333zM512 341.333v384l256-192-256-192z" />
<glyph unicode="&#xe929;" glyph-name="youtube-filled" d="M1023.898 520.602h-1.741c0 10.035 0.205 19.968-0.102 30.003-0.307 9.83-1.024 19.661-1.741 29.491-0.922 12.186-2.15 24.371-3.277 36.557s-1.331 24.576-3.789 36.454c-3.686 17.92-8.294 35.635-13.619 53.043-4.813 15.667-11.981 30.515-22.835 43.008-23.859 27.546-54.579 42.189-90.522 45.978-18.944 1.946-38.093 3.174-57.139 4.301-17.51 1.126-35.021 1.946-52.634 2.56-26.419 1.024-52.838 1.946-79.258 2.662-25.907 0.717-51.814 1.434-77.619 1.638-50.79 0.307-101.581 0.819-152.371 0.41-51.507-0.41-102.912-1.741-154.419-2.765-21.709-0.41-43.418-1.126-65.126-1.741-6.861-0.205-13.722-0.512-20.582-0.922-22.528-1.331-45.056-2.355-67.482-4.301-15.053-1.331-30.413-2.662-45.056-6.246-32.256-7.782-58.266-25.498-76.186-53.658-13.005-20.685-20.173-43.827-24.576-67.584-3.584-19.354-5.734-39.014-7.782-58.675-2.048-19.866-3.174-39.834-4.301-59.699-1.024-16.282-1.741-32.563-1.741-48.845 0-46.182 0.307-92.467 0.819-138.65 0.102-11.571 0.922-23.142 1.741-34.611 1.229-16.486 2.662-32.973 4.096-49.357 1.024-12.186 1.741-24.474 3.686-36.557 3.277-20.787 8.806-40.96 16.282-60.621 13.722-36.352 39.424-60.211 75.981-72.499 23.245-7.782 47.514-9.933 71.578-12.186 19.456-1.843 39.014-2.458 58.573-3.379 16.077-0.717 32.256-1.331 48.435-1.741 25.293-0.717 50.586-1.331 75.878-1.741 23.45-0.41 46.899-0.922 70.349-1.126 41.165-0.41 82.432-1.126 123.494-0.819 51.61 0.41 103.219 1.741 154.829 2.765 21.197 0.41 42.291 1.126 63.488 1.741 6.963 0.205 14.029 0.512 20.992 0.922 23.245 1.331 46.49 2.458 69.632 4.301 14.541 1.126 29.286 2.15 43.52 5.222 45.158 9.728 77.107 35.738 94.003 79.462 11.571 29.798 16.998 60.826 19.558 92.467 1.434 17.92 3.174 35.84 4.096 53.658 1.229 22.938 2.355 45.978 2.56 68.915 0.614 40.653 0.307 81.408 0.307 122.163zM406.118 314.982v287.437c92.262-48.026 184.013-95.846 276.582-144.179-92.365-47.821-184.115-95.334-276.582-143.258z" />
<glyph unicode="&#xe92a;" glyph-name="user" d="M686.49 488.96c-5.325 1.536-10.752 2.867-16.077 4.096-45.875-28.774-100.147-45.466-158.31-45.466-58.88 0-113.766 17.101-160.051 46.592-121.037-26.726-212.992-138.445-215.859-258.662-1.536-63.386-2.867-126.771-2.867-190.157-0.102-59.085-4.403-60.723 25.907-68.813 0.102 0 388.096-90.522 705.946-0.819 16.794 6.861 26.317 15.36 25.907 36.045-1.434 73.114 1.331 146.227-1.536 219.238-4.608 122.061-84.992 224.973-203.059 257.946zM513.843 516.403c121.344 1.741 219.546 100.966 219.648 222.003 0.102 122.778-96.768 220.877-218.624 221.594-123.802 0.717-224.563-97.997-225.178-220.57-0.614-121.139 103.526-224.768 224.154-223.027z" />
<glyph unicode="&#xe92b;" glyph-name="drag-handle" d="M853.333 576h-682.667v-85.333h682.667v85.333zM170.667 320h682.667v85.333h-682.667v-85.333z" />
<glyph unicode="&#xe92c;" glyph-name="tabs" d="M896 832h-768c-46.933 0-85.333-38.4-85.333-85.333v-597.333c0-46.933 38.4-85.333 85.333-85.333h768c46.933 0 85.333 38.4 85.333 85.333v597.333c0 46.933-38.4 85.333-85.333 85.333zM896 149.333h-768v597.333h426.667v-170.667h341.333v-426.667z" />
<glyph unicode="&#xe92d;" glyph-name="playlist" d="M170.667 533.333h512v-85.333h-512zM170.667 704h512v-85.333h-512zM170.667 362.667h341.333v-85.333h-341.333zM597.333 362.667v-256l213.333 128z" />
<glyph unicode="&#xe92e;" glyph-name="minimize" d="M256 149.333h512v-85.333h-512z" />
<glyph unicode="" glyph-name="minimize" d="M256 149.333h512v-85.333h-512z" />
<glyph unicode="42" glyph-name="youtube-filled" d="M1023.898 520.602h-1.741c0 10.035 0.205 19.968-0.102 30.003-0.307 9.83-1.024 19.661-1.741 29.491-0.922 12.186-2.15 24.371-3.277 36.557s-1.331 24.576-3.789 36.454c-3.686 17.92-8.294 35.635-13.619 53.043-4.813 15.667-11.981 30.515-22.835 43.008-23.859 27.546-54.579 42.189-90.522 45.978-18.944 1.946-38.093 3.174-57.139 4.301-17.51 1.126-35.021 1.946-52.634 2.56-26.419 1.024-52.838 1.946-79.258 2.662-25.907 0.717-51.814 1.434-77.619 1.638-50.79 0.307-101.581 0.819-152.371 0.41-51.507-0.41-102.912-1.741-154.419-2.765-21.709-0.41-43.418-1.126-65.126-1.741-6.861-0.205-13.722-0.512-20.582-0.922-22.528-1.331-45.056-2.355-67.482-4.301-15.053-1.331-30.413-2.662-45.056-6.246-32.256-7.782-58.266-25.498-76.186-53.658-13.005-20.685-20.173-43.827-24.576-67.584-3.584-19.354-5.734-39.014-7.782-58.675-2.048-19.866-3.174-39.834-4.301-59.699-1.024-16.282-1.741-32.563-1.741-48.845 0-46.182 0.307-92.467 0.819-138.65 0.102-11.571 0.922-23.142 1.741-34.611 1.229-16.486 2.662-32.973 4.096-49.357 1.024-12.186 1.741-24.474 3.686-36.557 3.277-20.787 8.806-40.96 16.282-60.621 13.722-36.352 39.424-60.211 75.981-72.499 23.245-7.782 47.514-9.933 71.578-12.186 19.456-1.843 39.014-2.458 58.573-3.379 16.077-0.717 32.256-1.331 48.435-1.741 25.293-0.717 50.586-1.331 75.878-1.741 23.45-0.41 46.899-0.922 70.349-1.126 41.165-0.41 82.432-1.126 123.494-0.819 51.61 0.41 103.219 1.741 154.829 2.765 21.197 0.41 42.291 1.126 63.488 1.741 6.963 0.205 14.029 0.512 20.992 0.922 23.245 1.331 46.49 2.458 69.632 4.301 14.541 1.126 29.286 2.15 43.52 5.222 45.158 9.728 77.107 35.738 94.003 79.462 11.571 29.798 16.998 60.826 19.558 92.467 1.434 17.92 3.174 35.84 4.096 53.658 1.229 22.938 2.355 45.978 2.56 68.915 0.614 40.653 0.307 81.408 0.307 122.163zM406.118 314.982v287.437c92.262-48.026 184.013-95.846 276.582-144.179-92.365-47.821-184.115-95.334-276.582-143.258z" />
<glyph unicode="41" glyph-name="video-library" d="M170.667 704h-85.333v-597.333c0-46.933 38.4-85.333 85.333-85.333h597.333v85.333h-597.333v597.333zM853.333 874.667h-512c-46.933 0-85.333-38.4-85.333-85.333v-512c0-46.933 38.4-85.333 85.333-85.333h512c46.933 0 85.333 38.4 85.333 85.333v512c0 46.933-38.4 85.333-85.333 85.333zM512 341.333v384l256-192-256-192z" />
<glyph unicode="40" glyph-name="edit" d="M0-23.45c28.467 97.69 56.832 195.379 85.299 293.069 2.253 7.782 4.608 15.565 6.656 23.347 3.277 11.776 9.421 21.299 18.842 29.184 8.806 7.27 16.589 15.974 24.678 24.064 133.427 132.198 266.854 264.397 400.179 396.698 3.072 3.072 5.734 6.554 7.885 9.216 18.125-18.227 35.123-35.328 54.067-54.374-2.048-1.434-6.042-3.482-9.114-6.554-138.24-137.933-276.378-275.866-414.31-414.106-4.915-5.018-9.011-11.878-10.957-18.637-16.589-54.784-32.358-109.875-48.742-164.864-2.048-6.861-1.024-11.162 4.198-15.872 8.499-7.68 15.974-16.486 24.576-24.064 2.97-2.56 8.602-4.506 12.186-3.584 55.091 15.77 110.080 31.846 164.966 48.435 4.71 1.434 9.114 5.427 12.8 9.216 140.186 139.776 280.166 279.757 420.147 419.635 2.662 2.662 4.915 5.632 6.451 7.373 19.866-19.866 39.117-39.117 60.211-60.211-0.922-0.614-4.608-2.15-7.168-4.71-138.035-136.704-276.275-273.101-413.594-410.522-19.149-19.251-39.936-31.13-65.638-38.4-91.136-25.805-181.862-53.043-272.794-79.77-6.042-1.741-12.186-3.379-18.227-5.12h-8.192c-4.403 1.946-8.909 3.686-13.312 5.734-12.288 5.734-16.486 17.408-21.094 28.774v6.042zM275.354 146.227c-2.662 16.998-5.53 32.563-7.373 48.128-0.922 7.373-3.891 10.342-11.059 11.674-17.51 3.379-34.816 7.782-50.995 11.366 145.203 145.51 290.406 291.123 434.688 435.814 23.040-23.040 47.104-47.002 70.349-70.144-143.77-144.179-288.87-289.69-435.61-436.838zM693.555 894.362c13.107 12.8 26.214 26.419 40.243 39.117 40.243 36.25 92.672 35.43 131.891-2.867 43.315-42.189 86.016-84.89 128.205-128.205 39.936-40.858 39.322-95.539-0.512-136.294-11.981-12.288-24.371-24.269-35.84-35.533-87.654 87.552-175.206 175.002-263.987 263.782zM586.752 797.696c19.866 18.637 40.243 37.786 59.597 56.013 91.75-91.75 182.989-183.091 275.046-275.149-19.149-17.92-39.731-37.274-59.597-55.91l-275.046 275.046z" />
<glyph unicode="39" glyph-name="delete" d="M818.893 676.147c-99.738 0.512-199.475 0.102-299.11 0.102-105.472 0-211.046 0.717-316.518-0.41-52.634-0.512-65.126-14.336-58.061-65.741 27.853-202.854 56.934-405.504 85.709-608.154 7.68-54.272 21.094-65.741 75.981-65.843 141.619-0.205 283.238-0.205 424.858-0.102 60.826 0 74.547 15.053 81.715 74.957 23.142 194.765 47.206 389.427 72.499 583.885 8.806 67.277 0 80.896-67.072 81.306zM354.406 43.11c-34.406-4.198-47.309 23.45-50.79 52.531-16.691 140.186-32.358 280.576-48.538 420.762-3.174 27.853 5.018 51.405 33.997 56.218 31.949 5.325 47.514-17.408 51.302-45.773 10.957-82.842 20.48-165.888 30.31-248.832 6.758-57.242 13.21-114.483 19.763-171.725 3.072-30.106-1.229-58.982-36.045-63.181zM560.128 96.051c-0.102-28.57-11.981-54.477-43.418-53.965-33.792 0.614-43.008 27.136-42.701 58.163 0.717 69.12 0.205 138.342 0.205 207.462h-0.717c0 69.12 0.307 138.342-0.102 207.462-0.205 29.696 4.915 58.47 40.038 60.314 35.328 1.843 45.568-26.522 45.773-55.91 1.126-141.107 1.229-282.317 0.922-423.526zM782.234 512.512c-16.896-140.186-34.611-280.166-52.736-420.25-3.686-28.262-18.739-52.531-49.869-48.026-33.485 4.915-39.219 32.358-35.021 63.078 9.421 68.506 16.998 137.216 25.805 205.824s17.818 137.114 26.112 205.824c3.584 29.491 12.288 57.344 47.411 54.784 35.226-2.56 41.779-32.051 38.298-61.235zM434.688 871.424c17.203 85.914 26.112 94.822 83.763 85.811 98.099-15.36 100.659-18.534 87.859-114.074 75.776-13.414 151.654-27.955 227.942-39.936 33.075-5.222 62.771-12.902 57.139-53.862-6.042-43.827-41.574-37.786-71.27-32.87-176.128 29.491-352.154 60.211-528.179 90.522-38.298 6.656-76.493 14.336-114.995 20.070-30.925 4.608-48.742 20.685-43.418 52.122 5.53 32.256 30.208 39.526 59.29 34.509 80.691-13.824 161.28-28.16 241.869-42.291z" />
<glyph unicode="38" glyph-name="add" d="M965.427 594.227h-307.2v307.302c0 32.154-26.317 58.47-58.47 58.47h-175.514c-32.154 0-58.573-26.317-58.573-58.47v-307.302h-307.2c-32.154 0-58.47-26.317-58.47-58.47v-175.514c0-32.154 26.317-58.47 58.47-58.47h307.2v-307.302c0-32.051 26.419-58.47 58.573-58.47h175.514c32.154 0 58.47 26.419 58.47 58.47v307.302h307.2c32.256 0 58.573 26.317 58.573 58.47v175.514c0 32.154-26.317 58.47-58.573 58.47z" />
<glyph unicode="37" glyph-name="twitch" d="M142.029 895.898l-58.266-155.853v-623.002h214.221v-117.043h116.736l116.736 117.043h175.309l233.574 233.472v545.382h-798.31zM862.618 389.427l-136.602-135.987h-214.016l-116.736-116.736v116.736h-175.309v564.634h642.662v-428.646zM434.074 662.221h77.926v-233.677h-77.926zM648.192 662.221h77.824v-233.882h-77.824z" />
<glyph unicode="36" glyph-name="twitch-filled" d="M88.38 960l-66.145-177.134v-713.945h244.859v-133.19h133.413l133.413 133.635h199.779l267.504 266.603v624.031zM940.5 379.082l-171.377-169.691h-260.084l-142.073-140.739v141.043h-215.766v683.026h789.299zM177.93 875.587v-642.978h201.149v-132.757l132.453 132.453h242.471l159.767 159.756v483.527zM511.122 433.137h-88.778v266.825h88.778zM757.023 433.137h-88.778v266.825h88.778z" />
<glyph unicode="35" glyph-name="translate" d="M549.12 317.013l-108.373 107.093 1.28 1.28c74.24 82.773 127.147 177.92 158.293 278.613h125.013v85.333h-298.667v85.333h-85.333v-85.333h-298.667v-84.907h476.587c-28.587-82.347-73.813-160.427-135.253-228.693-39.68 43.947-72.533 92.16-98.56 142.933h-85.333c31.147-69.547 73.813-135.253 127.147-194.56l-217.173-214.187 60.587-60.587 213.333 213.333 132.693-132.693 32.427 87.040zM789.333 533.333h-85.333l-192-512h85.333l47.787 128h202.667l48.213-128h85.333l-192 512zM677.547 234.667l69.12 184.747 69.12-184.747h-138.24z" />
<glyph unicode="34" glyph-name="thumbs-up" d="M196.301 530.842c-32.768 0.102-65.434 0.102-98.202 0-24.474 0-34.099-9.626-34.099-33.997v-430.694c0-22.016 10.65-32.768 32.563-32.87 33.382-0.205 66.867-0.102 100.25 0 22.528 0.102 33.075 10.752 33.075 33.382 0.102 143.565 0.102 287.13 0 430.694 0.102 23.962-9.523 33.382-33.587 33.485zM851.763 560.026h-275.149c0.205 2.15 0.41 3.789 0.819 5.325 10.65 51.405 19.354 103.117 19.558 155.853 0.205 33.587-2.15 66.765-16.691 97.69-9.011 19.456-21.606 35.738-43.725 41.472-22.835 5.939-39.731-2.867-43.418-22.835-2.56-14.438-5.12-28.774-6.758-43.315-3.379-32.461-11.981-62.669-34.714-87.45-13.005-14.438-24.678-30.208-38.195-44.134-32.256-33.485-57.754-71.373-75.571-114.381-3.584-8.499-7.987-16.486-12.595-24.474-7.782-13.619-19.968-19.866-35.328-20.787-16.179-0.922-24.371-6.656-29.082-22.221-2.15-7.475-2.867-15.462-2.867-23.245-0.205-117.043-0.102-234.086-0.102-351.13 0-6.042 0.307-12.186 1.229-18.33 2.867-18.022 14.029-27.341 32.154-27.443 7.168-0.102 14.438-0.205 21.606-0.614 27.853-1.331 55.398-4.813 82.739-11.469 28.16-6.861 56.013-15.77 85.504-15.77h228.147c1.741 0 3.379 0 5.12 0.102 52.326 2.662 94.208 45.363 95.539 98.099 27.955 19.558 46.49 52.019 46.49 88.781v1.946c0 2.97-0.205 5.939-0.41 8.909 3.584 2.662 6.963 5.325 10.138 8.294 21.299 19.763 34.611 47.923 34.611 79.36v1.946c0 10.752-1.638 20.992-4.608 30.822 37.478 16.998 63.693 54.682 63.693 98.509v1.946c0.102 60.109-48.333 108.544-108.134 108.544z" />
<glyph unicode="33" glyph-name="thumbs-down" d="M196.301 364.646c-32.768-0.102-65.434-0.102-98.202 0-24.474 0-34.099 9.626-34.099 33.997v430.694c0 22.016 10.65 32.768 32.563 32.87 33.382 0.205 66.867 0.102 100.25 0 22.528-0.102 33.075-10.752 33.075-33.382 0.102-143.565 0.102-287.13 0-430.694 0.102-23.962-9.523-33.382-33.587-33.485zM851.763 335.462h-275.149c0.205-2.15 0.41-3.789 0.819-5.325 10.65-51.405 19.354-103.117 19.558-155.853 0.205-33.587-2.15-66.765-16.691-97.69-9.011-19.456-21.606-35.738-43.725-41.472-22.835-5.939-39.731 2.867-43.418 22.835-2.56 14.438-5.12 28.774-6.758 43.315-3.379 32.461-11.981 62.669-34.714 87.45-13.005 14.438-24.678 30.208-38.195 44.134-32.256 33.485-57.754 71.373-75.571 114.381-3.584 8.499-7.987 16.486-12.595 24.474-7.782 13.619-19.968 19.866-35.328 20.787-16.179 0.922-24.371 6.656-29.082 22.221-2.15 7.475-2.867 15.462-2.867 23.245-0.205 117.043-0.102 234.086-0.102 351.13 0 6.042 0.307 12.186 1.229 18.33 2.867 18.022 14.029 27.341 32.154 27.443 7.168 0.102 14.438 0.205 21.606 0.614 27.853 1.331 55.398 4.813 82.739 11.469 28.16 6.861 56.013 15.77 85.504 15.77h228.147c1.741 0 3.379 0 5.12-0.102 52.326-2.662 94.208-45.363 95.539-98.099 27.955-19.558 46.49-52.019 46.49-88.781v-1.946c0-2.97-0.205-5.939-0.41-8.909 3.584-2.662 6.963-5.325 10.138-8.294 21.299-19.763 34.611-47.923 34.611-79.36v-1.946c0-10.752-1.638-20.992-4.608-30.822 37.478-16.998 63.693-54.682 63.693-98.509v-1.946c0.102-60.109-48.333-108.544-108.134-108.544z" />
<glyph unicode="32" glyph-name="sunset" d="M512.512 641.638c-105.779 0.205-191.488-84.685-191.693-189.85 0-9.523 0.717-18.944 2.048-28.16h377.651c1.331 8.909 2.048 18.125 2.048 27.341 0.205 105.267-84.89 190.464-190.054 190.669zM698.573 565.35c3.379-10.957 14.336-19.149 25.907-19.251 4.301-0.205 8.499 0.717 12.186 2.765 24.781 14.131 49.664 28.058 74.138 42.701 12.493 7.475 15.77 23.45 8.806 35.84-7.066 12.493-22.323 18.33-35.021 11.469-25.702-13.926-50.995-28.672-75.981-43.725-10.035-5.939-13.414-18.637-10.035-29.798zM517.632 665.702c15.258 0.102 27.136 12.186 27.238 28.058 0.102 13.312 0 26.726 0 40.038v40.755c-0.307 15.36-12.083 27.238-27.136 27.341-15.36 0.102-27.443-11.878-27.546-27.648-0.102-26.931-0.102-53.862 0-80.794 0-15.667 12.186-27.75 27.443-27.75zM184.934 423.731c13.619-0.102 27.238 0 40.755 0 13.312 0 26.726-0.102 40.038 0 15.36 0.102 27.034 11.059 27.648 25.907 0.614 15.053-10.445 28.058-26.010 28.365-28.16 0.614-56.218 0.614-84.378 0-15.053-0.307-26.624-13.414-26.112-27.75 0.512-15.053 12.493-26.522 28.058-26.522zM730.214 450.253c0.41-15.053 12.493-26.522 27.955-26.624 13.619-0.102 27.238 0 40.755 0 13.312 0 26.726-0.102 40.038 0 15.36 0.102 27.034 11.059 27.648 25.907 0.614 15.053-10.445 28.058-26.010 28.365-28.16 0.614-56.218 0.614-84.378 0-14.95-0.205-26.419-13.312-26.010-27.648zM637.542 630.374c9.523 0.102 17.715 3.686 22.528 11.878 14.643 24.474 29.082 49.152 42.906 74.138 6.963 12.595 1.638 28.16-10.547 35.328-12.39 7.168-28.57 4.403-36.045-7.885-14.95-24.576-29.594-49.357-43.213-74.752-9.523-17.51 4.403-38.605 24.371-38.707zM365.261 649.626c5.222-8.909 13.21-13.619 23.757-13.517 21.094 0.102 33.997 21.709 23.654 40.448-13.312 23.962-27.136 47.616-41.062 71.066-8.090 13.619-24.166 17.408-37.274 9.728s-17.613-23.552-9.933-37.171c13.414-23.757 27.136-47.206 40.858-70.554zM215.142 589.619c23.142-13.619 46.49-26.931 69.837-40.346 4.403-2.56 9.011-3.789 12.595-3.686 13.722 0.102 24.474 8.090 27.75 19.456 3.379 12.083-1.024 24.371-12.083 30.925-23.552 13.926-47.206 27.546-71.066 40.96-13.926 7.885-30.208 3.174-37.683-10.035-7.885-13.517-3.584-28.979 10.65-37.274zM955.187 328.806c-9.626 19.866-29.082 28.16-57.037 24.883-41.267-4.915-77.21-21.504-107.11-50.278-8.294-8.090-12.8-6.656-20.685 0.41-75.571 67.584-171.418 67.994-247.706 0.717-4.301-3.789-7.475-5.734-10.65-5.939-3.174 0.205-6.349 2.15-10.65 5.939-76.288 67.277-172.032 66.867-247.706-0.717-7.885-6.963-12.288-8.397-20.685-0.41-29.798 28.774-65.741 45.363-107.11 50.278-27.955 3.379-47.411-4.915-57.037-24.883-14.234-29.389 4.198-61.952 39.322-64.307 41.574-2.765 68.608-25.907 89.907-57.856 10.035-15.155 20.89-27.443 38.912-32.051h13.619c17.306 5.12 29.082 16.486 37.581 32.154 5.018 9.421 12.39 17.306 19.763 24.883 20.89 21.197 44.749 32.256 68.813 32.666v-0.102c18.842 0.205 36.659-5.837 53.043-17.818 9.933-7.27 18.944-15.565 26.624-24.986h-5.12c-24.986 0-40.653-20.173-28.16-36.25l60.928-78.541c12.493-16.077 43.725-16.077 56.32 0l60.928 78.541c12.493 16.077-3.174 36.25-28.16 36.25h-5.632c7.68 9.421 16.691 17.715 26.624 24.986 16.384 11.981 34.202 18.125 53.043 17.818v0.102c24.064-0.307 47.923-11.366 68.813-32.666 7.475-7.578 14.746-15.462 19.763-24.883 8.397-15.667 20.275-27.034 37.581-32.154h13.619c18.022 4.608 28.877 16.998 38.912 32.051 21.299 32.051 48.333 55.091 89.907 57.856 35.226 2.355 53.658 34.816 39.424 64.307z" />
<glyph unicode="31" glyph-name="sunrise" d="M512.512 616.55c-105.779 0.205-191.488-84.685-191.693-189.85 0-9.523 0.717-18.944 2.048-28.16h377.651c1.331 8.909 2.048 18.125 2.048 27.341 0.205 105.165-84.89 190.464-190.054 190.669zM698.573 540.262c3.379-10.957 14.336-19.149 25.907-19.251 4.301-0.205 8.499 0.717 12.186 2.765 24.781 14.131 49.664 28.058 74.138 42.701 12.493 7.475 15.77 23.45 8.806 35.84-7.066 12.493-22.323 18.33-35.021 11.469-25.702-13.926-50.995-28.672-75.981-43.725-10.035-5.939-13.414-18.637-10.035-29.798zM517.632 640.614c15.258 0.102 27.136 12.186 27.238 28.058 0.102 13.312 0 26.726 0 40.038v40.755c-0.307 15.36-12.083 27.238-27.136 27.341-15.36 0.102-27.443-11.878-27.546-27.648-0.102-26.931-0.102-53.862 0-80.794 0-15.667 12.186-27.75 27.443-27.75zM184.934 398.541c13.619-0.102 27.238 0 40.755 0 13.312 0 26.726-0.102 40.038 0 15.36 0.102 27.034 11.059 27.648 25.907 0.614 15.053-10.445 28.058-26.010 28.365-28.16 0.614-56.218 0.614-84.378 0-15.053-0.307-26.624-13.414-26.112-27.75 0.512-14.95 12.493-26.419 28.058-26.522zM730.214 425.165c0.41-15.053 12.493-26.522 27.955-26.624 13.619-0.102 27.238 0 40.755 0 13.312 0 26.726-0.102 40.038 0 15.36 0.102 27.034 11.059 27.648 25.907 0.614 15.053-10.445 28.058-26.010 28.365-28.16 0.614-56.218 0.614-84.378 0-14.95-0.205-26.419-13.312-26.010-27.648zM637.542 605.286c9.523 0.102 17.715 3.686 22.528 11.878 14.643 24.474 29.082 49.152 42.906 74.035 6.963 12.595 1.638 28.16-10.547 35.328-12.39 7.168-28.57 4.403-36.045-7.885-14.95-24.576-29.594-49.357-43.213-74.752-9.523-17.408 4.403-38.502 24.371-38.605zM365.261 624.435c5.222-8.909 13.21-13.619 23.757-13.517 21.094 0.102 33.997 21.709 23.654 40.448-13.312 23.962-27.136 47.616-41.062 71.066-8.090 13.619-24.166 17.408-37.274 9.728s-17.613-23.552-9.933-37.171c13.414-23.654 27.136-47.104 40.858-70.554zM215.142 564.531c23.142-13.619 46.49-26.931 69.837-40.346 4.403-2.56 9.011-3.789 12.595-3.686 13.722 0.102 24.474 8.090 27.75 19.456 3.379 12.083-1.024 24.371-12.083 30.925-23.552 13.926-47.206 27.546-71.066 40.96-13.926 7.885-30.208 3.174-37.683-10.035-7.885-13.517-3.584-28.979 10.65-37.274zM915.866 209.408c-41.574 2.765-68.608 25.907-89.907 57.856-10.035 15.155-20.89 27.443-38.912 32.051h-13.619c-17.306-5.12-29.082-16.486-37.581-32.154-5.018-9.421-12.39-17.306-19.763-24.883-20.89-21.197-44.749-32.256-68.813-32.666v0.102c-18.842-0.205-36.659 5.837-53.043 17.818-3.994 2.97-7.885 6.144-11.674 9.421 18.944 4.403 29.082 21.299 18.33 35.123l-60.928 78.541c-12.493 16.077-43.725 16.077-56.32 0l-60.928-78.541c-10.854-13.926-0.512-30.925 18.739-35.226-3.686-3.277-7.578-6.349-11.571-9.318-16.384-11.981-34.202-18.125-53.043-17.818v-0.102c-24.064 0.307-47.923 11.366-68.813 32.666-7.475 7.578-14.746 15.462-19.763 24.883-8.397 15.667-20.275 27.034-37.581 32.154h-13.619c-18.022-4.608-28.877-16.998-38.912-32.051-21.299-32.051-48.333-55.091-89.907-57.856-35.123-2.355-53.555-34.816-39.322-64.307 9.626-19.866 29.082-28.16 57.037-24.883 41.267 4.915 77.21 21.504 107.11 50.278 8.294 8.090 12.8 6.656 20.685-0.41 75.571-67.584 171.418-67.994 247.706-0.717 4.301 3.789 7.475 5.734 10.65 5.939 3.174-0.205 6.349-2.15 10.65-5.939 76.288-67.277 172.032-66.867 247.706 0.717 7.885 6.963 12.288 8.397 20.685 0.41 29.798-28.774 65.741-45.363 107.11-50.278 27.955-3.379 47.411 4.915 57.037 24.883 14.131 29.389-4.301 61.952-39.424 64.307z" />
<glyph unicode="30" glyph-name="settings" d="M816.64 407.893c1.707 12.8 2.56 26.027 2.56 40.107 0 13.653-0.853 27.307-2.987 40.107l86.613 67.413c7.68 5.973 9.813 17.493 5.12 26.027l-81.92 141.653c-5.12 9.387-15.787 12.373-25.173 9.387l-101.973-40.96c-21.333 16.213-43.947 29.867-69.12 40.107l-15.36 108.373c-1.707 10.24-10.24 17.493-20.48 17.493h-163.84c-10.24 0-18.347-7.253-20.053-17.493l-15.36-108.373c-25.173-10.24-48.213-24.32-69.12-40.107l-101.973 40.96c-9.387 3.413-20.053 0-25.173-9.387l-81.493-141.653c-5.12-8.96-3.413-20.053 5.12-26.027l86.613-67.413c-2.133-12.8-3.84-26.88-3.84-40.107s0.853-27.307 2.987-40.107l-86.613-67.413c-7.68-5.973-9.813-17.493-5.12-26.027l81.92-141.653c5.12-9.387 15.787-12.373 25.173-9.387l101.973 40.96c21.333-16.213 43.947-29.867 69.12-40.107l15.36-108.373c2.133-10.24 10.24-17.493 20.48-17.493h163.84c10.24 0 18.773 7.253 20.053 17.493l15.36 108.373c25.173 10.24 48.213 23.893 69.12 40.107l101.973-40.96c9.387-3.413 20.053 0 25.173 9.387l81.92 141.653c5.12 9.387 2.987 20.053-5.12 26.027l-85.76 67.413zM512 294.4c-84.48 0-153.6 69.12-153.6 153.6s69.12 153.6 153.6 153.6 153.6-69.12 153.6-153.6-69.12-153.6-153.6-153.6z" />
<glyph unicode="29" glyph-name="search" d="M661.333 362.667h-33.707l-11.947 11.52c41.813 48.64 66.987 111.787 66.987 180.48 0 153.173-124.16 277.333-277.333 277.333s-277.333-124.16-277.333-277.333 124.16-277.333 277.333-277.333c68.693 0 131.84 25.173 180.48 66.987l11.52-11.947v-33.707l213.333-212.907 63.573 63.573-212.907 213.333zM405.333 362.667c-106.24 0-192 85.76-192 192s85.76 192 192 192 192-85.76 192-192-85.76-192-192-192z" />
<glyph unicode="28" glyph-name="refresh" d="M921.395 392.090h-43.213c-19.354 0-37.376-15.565-42.598-34.202-39.219-141.722-169.37-245.76-323.789-245.76-105.267 0-199.475 48.435-261.018 124.518-12.186 15.053-9.011 38.912 5.222 52.019l86.835 79.77c14.234 13.107 10.138 23.654-9.216 23.654h-234.598c-19.354 0-35.021-15.667-35.021-35.021v-210.022c0-19.354 11.571-24.371 25.702-11.264l31.334 28.877c14.234 13.107 34.714 10.854 47.206-3.994 82.227-98.202 205.722-160.666 343.552-160.666 216.576 0 397.005 153.6 438.886 357.581 3.994 18.944-9.933 34.509-29.286 34.509zM935.219 759.091l-30.618-30.515c-13.722-13.619-33.587-11.776-45.875 3.174-82.125 100.25-207.155 164.25-346.931 164.25-216.166 0-396.902-153.293-438.579-357.581-3.891-18.944 10.035-34.611 29.389-34.611h43.213c19.354 0 37.376 15.462 42.496 34.099 39.219 142.131 169.37 245.965 323.482 245.965 109.158 0 206.029-51.712 267.469-132.198 11.776-15.36 8.602-39.936-5.018-53.555l-69.427-69.53c-13.619-13.722-9.114-24.781 10.24-24.781h210.022c19.354 0 35.021 15.667 35.021 35.021v210.022c-0.102 19.354-11.162 23.962-24.883 10.24z" />
<glyph unicode="27" glyph-name="reddit" d="M704.614 414.515c2.355-5.939 3.379-11.981 3.379-18.125 0-12.186-4.198-24.064-11.264-33.792-6.963-9.523-16.896-16.998-28.57-20.275l-0.205-0.102h-0.205c-5.427-1.843-11.059-2.765-16.589-2.765-13.005 0-25.805 4.71-36.045 12.698-10.138 7.987-17.818 19.456-20.275 32.973v0.205c-0.717 3.482-1.126 6.963-1.126 10.445 0 11.776 3.994 23.040 10.65 32.358 6.554 9.318 15.872 16.691 26.726 20.48h0.205c6.144 2.253 12.698 3.379 19.046 3.379 11.674 0 23.245-3.584 32.973-10.035 9.626-6.349 17.408-15.77 21.299-27.341l0.102-0.205c-0.102 0.205-0.102 0.102-0.102 0.102zM668.774 270.131c-4.608 2.97-9.933 4.813-15.565 4.813-4.506 0-9.216-1.331-13.414-4.096-39.629-23.654-86.118-36.557-132.403-36.557-34.714 0-69.12 7.27-100.352 22.63l-0.41 0.205c-4.71 1.946-10.035 6.042-15.974 9.933-2.97 1.946-6.042 3.891-9.523 5.222-3.379 1.434-7.168 2.458-11.264 2.458-3.379 0-6.861-0.717-10.342-2.355l-0.512-0.205c-5.427-2.048-9.728-5.837-12.493-10.342-2.867-4.608-4.301-10.035-4.301-15.462 0-4.813 1.126-9.728 3.482-14.131 2.253-4.198 5.734-7.885 10.24-10.24 44.646-30.106 97.178-43.725 150.016-43.725 47.616 0 95.437 11.059 138.035 31.027l0.41 0.205c5.632 3.277 13.107 6.349 20.173 10.65 3.482 2.253 6.861 4.813 9.83 8.090 2.867 3.277 5.222 7.373 6.554 12.288 0.512 2.15 0.819 4.198 0.819 6.246 0 3.994-0.922 7.68-2.56 11.059-2.048 5.222-5.939 9.318-10.445 12.288zM355.328 342.528c0.102 0 0.205 0 0.307-0.102 5.734-2.048 11.571-3.072 17.408-3.072 14.541 0 28.57 5.939 39.322 15.667 10.65 9.728 17.92 23.45 17.92 39.117v1.331c0 0.717 0.102 1.434 0.102 2.253 0 15.565-7.168 29.286-17.715 39.117-10.547 9.728-24.678 15.77-39.219 15.77-3.891 0-7.885-0.41-11.776-1.331h-0.307c-19.251-3.994-36.147-18.33-42.394-37.99v-0.102c-1.741-5.427-2.662-10.957-2.662-16.486 0-12.083 3.994-23.757 10.854-33.485 6.758-9.523 16.486-16.998 28.058-20.48l0.102-0.205zM959.795 483.226c0.102-2.048 0.205-3.994 0.205-5.939 0-21.709-6.963-42.701-18.637-60.416-10.854-16.589-25.907-30.515-43.11-39.936 1.126-8.704 1.741-17.408 1.741-26.112 0-46.899-16.179-92.877-44.339-129.843h-0.102c-51.917-69.222-131.789-110.080-212.48-130.662h-0.102c-43.008-10.445-87.347-15.77-131.686-15.77-66.048 0-132.096 11.878-193.741 36.659v0.102h-0.102c-63.898 26.317-124.826 68.198-162.099 129.536-20.070 32.768-31.13 71.168-31.13 109.67 0 8.704 0.614 17.51 1.741 26.112-16.794 9.421-31.334 22.938-42.189 38.912-11.571 17.203-18.842 37.376-19.763 58.675v0.307c0 29.901 13.005 58.163 33.178 79.053s47.718 34.509 77.21 34.509h1.229c3.072 0.205 6.246 0.307 9.318 0.307 14.848 0 29.696-2.355 43.827-7.782l0.102-0.102h0.102c12.083-5.12 24.064-11.162 34.714-19.661 3.482 1.843 7.27 3.891 11.469 5.427 64.717 38.298 139.878 53.146 213.197 57.344 0.614 36.352 5.12 74.342 22.835 107.622 14.746 27.648 40.346 49.152 70.861 56.627l0.102 0.102h0.205c11.571 2.253 23.347 3.277 34.918 3.277 30.925 0 61.542-7.373 90.214-18.739 12.698 19.149 30.822 34.099 52.019 42.394l0.41 0.205c12.493 3.891 25.6 6.144 38.81 6.144 13.926 0 27.955-2.56 41.165-8.397l0.205-0.102c18.842-7.27 34.816-20.685 46.182-37.376 11.366-16.794 18.022-36.864 18.022-57.446 0-3.789-0.205-7.578-0.614-11.469v-0.307c-2.253-26.726-15.77-50.074-34.816-66.765-19.251-16.794-44.134-26.931-69.734-26.931-4.096 0-8.294 0.205-12.39 0.819-25.395 1.946-49.050 14.234-66.458 32.461s-28.672 42.598-28.672 68.915c0 1.229 0.102 2.56 0.205 3.789-23.859 10.65-49.152 19.456-74.24 19.354-3.686 0-7.27-0.205-10.957-0.614-18.842-1.843-36.352-13.722-44.851-30.72v-0.102c-12.902-25.088-15.462-54.374-15.872-83.456 72.192-4.71 144.794-22.016 208.384-58.573h0.102l0.922-0.512c1.229-0.717 3.482-1.946 5.427-2.97 4.403 3.584 9.011 7.168 14.234 10.342 19.354 12.902 42.189 19.251 65.024 19.251 10.138 0 20.275-1.331 30.208-3.789l0.819-0.205c23.245-5.939 44.339-19.354 60.211-37.376 15.872-18.125 26.522-41.062 28.57-65.843zM747.315 719.36c0-0.922 0-1.946 0.102-2.97v-0.205c0.512-12.493 6.349-24.166 15.36-32.87 9.011-8.602 20.992-13.926 33.178-14.029h0.307c0.922-0.102 1.741-0.102 2.662-0.102 12.288 0 24.474 5.325 33.69 13.824 9.216 8.602 15.258 20.378 15.667 32.973v0.307c0.102 0.922 0.102 1.843 0.102 2.867 0 13.005-6.042 25.395-15.565 34.611s-22.221 14.848-34.816 14.848c-4.096 0-8.090-0.512-12.083-1.741h-0.205c-10.342-2.662-20.070-9.114-27.136-17.613-7.066-8.602-11.264-19.046-11.264-29.901zM214.63 525.926c-9.626 4.506-19.661 7.68-29.491 7.68-1.638 0-3.277-0.102-5.018-0.307h-0.41c-14.131-0.41-28.467-6.554-39.117-16.486-10.752-9.83-17.818-23.142-18.33-37.888v-0.205c-0.102-1.229-0.102-2.355-0.102-3.482 0-9.011 2.765-17.818 7.475-25.805 3.482-5.939 8.090-11.366 13.21-16.077 16.384 36.25 42.291 66.97 71.782 92.57zM843.264 348.774c0 32.256-11.674 64.717-30.515 90.829-37.581 52.326-95.949 86.426-156.672 105.472l-0.41 0.102c-11.674 3.584-23.45 6.758-35.226 9.421-35.43 8.090-71.782 12.083-108.134 12.083-48.742 0-97.587-7.168-144.282-21.606-60.621-19.251-119.194-53.146-156.672-105.677-19.046-26.214-30.208-58.778-30.208-91.136 0-11.878 1.536-23.859 4.608-35.43 6.861-26.010 20.173-49.254 37.478-69.53s38.502-37.581 60.826-51.712c4.915-3.072 9.933-5.939 14.95-8.806 64.819-36.147 139.366-52.019 213.402-52.019 12.493 0 25.088 0.41 37.581 1.331 74.547 6.144 149.402 28.16 210.022 73.114 19.251 14.234 37.069 31.437 51.2 51.098s24.576 41.574 29.184 65.331v0.102c1.946 8.909 2.867 17.92 2.867 27.034zM902.144 477.184c0 7.885-1.843 15.667-5.734 22.938l-0.102 0.102v0.102c-5.222 10.854-13.517 18.944-23.45 24.576s-21.606 8.499-33.28 8.499c-10.547 0-20.992-2.355-30.31-7.066 29.594-25.702 55.603-56.627 72.397-92.979 5.427 4.71 10.035 10.445 13.414 16.896 4.506 8.294 7.066 17.715 7.066 26.931z" />
<glyph unicode="26" glyph-name="play" d="M341.333 746.667v-597.333l469.333 298.667z" />
<glyph unicode="25" glyph-name="notifications" d="M512 21.333c46.933 0 85.333 38.4 85.333 85.333h-170.667c0-46.933 37.973-85.333 85.333-85.333zM768 277.333v213.333c0 130.987-69.973 240.64-192 269.653v29.013c0 35.413-28.587 64-64 64s-64-28.587-64-64v-29.013c-122.453-29.013-192-138.24-192-269.653v-213.333l-85.333-85.333v-42.667h682.667v42.667l-85.333 85.333z" />
<glyph unicode="24" glyph-name="more" d="M512 618.667c46.933 0 85.333 38.4 85.333 85.333s-38.4 85.333-85.333 85.333-85.333-38.4-85.333-85.333 38.4-85.333 85.333-85.333zM512 533.333c-46.933 0-85.333-38.4-85.333-85.333s38.4-85.333 85.333-85.333 85.333 38.4 85.333 85.333-38.4 85.333-85.333 85.333zM512 277.333c-46.933 0-85.333-38.4-85.333-85.333s38.4-85.333 85.333-85.333 85.333 38.4 85.333 85.333-38.4 85.333-85.333 85.333z" />
<glyph unicode="23" glyph-name="monitor" d="M1024 203.776v662.016h-1024v-662.016h487.834v-123.29h-163.123v-49.766h374.579v49.766h-163.123v123.29h487.834zM28.979 836.915h966.144v-604.262h-966.144v604.262z" />
<glyph unicode="22" glyph-name="monitor-filled" d="M1024.070 189.044h-1024.070v687.675h1024.070zM26.978 216.022h970.114v633.719h-970.114zM42.098 831.9h937.165v-597.99h-937.165v597.99zM490.241 190.933h46.309v-125.32h-46.309v125.32zM695.933 66.105v-46.309h-370.505v46.309h370.505z" />
<glyph unicode="21" glyph-name="money" d="M841.318 801.894l-117.453-109.568h-424.038l-117.862 109.568s58.573 82.022 155.136 92.774c94.515 10.445 127.386-47.616 174.694-49.869 47.206 2.355 80.179 60.314 174.694 49.869 96.666-10.752 154.829-92.774 154.829-92.774zM528.179 276.173v-82.534c12.493 1.946 22.733 6.758 30.618 14.541 7.782 7.885 11.674 17.203 11.674 27.648 0 9.318-3.174 17.51-9.933 24.576-6.656 6.656-17.51 11.981-32.358 15.77zM459.059 382.054c0-7.475 2.97-14.541 8.192-20.685 5.53-6.758 13.414-11.674 24.576-15.77v73.216c-9.933-2.662-17.818-7.578-23.654-14.336-5.939-6.963-9.114-14.234-9.114-22.426zM912.896 97.997s-25.702-97.997-143.155-97.997h-515.379c-117.862 0-143.565 97.997-143.565 97.997-76.902 339.763 157.184 523.776 157.184 523.776h487.731s234.086-184.013 157.184-523.776zM632.013 243.507c0 23.040-7.373 41.779-21.811 56.218-14.643 14.541-41.984 26.522-82.022 35.533v83.046c16.077-5.837 26.112-17.203 30.003-33.792l63.59 6.861c-4.403 21.094-14.643 38.298-30.106 50.79-15.667 12.493-36.966 20.173-63.488 23.040v20.992h-36.454v-20.992c-28.877-2.458-51.917-11.776-69.12-27.136-17.51-16.077-26.112-35.328-26.112-58.675 0-22.63 7.578-42.291 23.040-58.368 15.36-16.077 39.322-27.955 72.294-35.84v-88.678c-9.011 3.482-17.51 9.626-24.781 17.715-7.373 8.192-12.288 18.125-14.95 29.184l-65.536-5.837c5.018-27.955 16.691-49.254 34.714-64.717 18.125-15.155 41.37-24.269 70.554-27.136v-38.4h36.454v39.322c32.563 4.096 57.958 14.848 76.288 32.461 18.33 17.51 27.443 39.117 27.443 64.41z" />
<glyph unicode="20" glyph-name="feed" d="M35.942 411.136c-19.558-0.307-35.84-16.589-35.942-36.045-0.102-24.678 0-49.459 0-74.138 0-8.806 3.072-16.282 8.704-22.938 8.602-10.138 19.661-13.312 32.768-13.312h183.706v146.534l-189.235-0.102zM983.040 411.136h-702.157v-146.432c233.882 0 467.763 0.102 701.542 0.102 2.048 0 4.096 0 6.144 0 8.397 0.307 15.565 3.277 22.016 8.499 6.758 5.632 10.547 13.107 13.414 21.094v87.040c-0.307 0.307-0.614 0.41-0.717 0.717-6.861 20.48-18.534 28.979-40.243 28.979zM1007.104 844.083c-5.12 3.584-11.059 4.813-16.896 6.349h-709.325v-146.842c234.701 0.102 469.299 0.102 704 0.102h3.072c8.397-0.102 15.667 2.867 22.118 7.987 7.27 5.734 11.162 13.517 13.926 22.016v86.016c-2.867 10.035-8.090 18.432-16.896 24.371zM31.949 849.715c-19.866-3.584-31.949-17.92-31.949-38.195 0-23.347 0-46.694 0.102-70.144 0-2.662 0.102-5.427 0.512-8.090 2.56-14.95 17.818-29.696 37.683-29.696h186.88v146.842h-191.386c-0.614-0.205-1.126-0.614-1.843-0.717zM34.202 630.374c-19.354-1.331-34.099-16.998-34.202-36.557 0-24.371 0-48.742 0-73.216 0-2.355 0.205-4.71 0.717-7.066 3.891-17.715 18.842-29.389 37.376-29.389h187.085v146.432h-184.32c-2.253 0-4.506 0-6.656-0.205zM983.245 630.579h-702.362v-146.432h661.299c14.95 0 30.003 0 44.954 0 9.114 0 16.998 3.072 23.962 8.909 6.656 5.734 10.445 13.21 12.902 21.504v86.016c-0.205 0.205-0.614 0.41-0.717 0.717-6.656 20.685-18.432 29.286-40.038 29.286zM36.659 191.898c-20.787-0.512-36.557-16.691-36.557-37.478-0.102-24.064 0.102-48.128-0.102-72.192 0-9.933 3.584-18.227 10.342-25.395 8.499-9.114 19.354-11.571 31.539-11.571 61.133 0 122.266 0 183.398 0v146.637h-182.989c-1.946 0-3.789 0.102-5.632 0zM978.534 191.898h-697.651v-146.637c233.779 0 467.558 0.102 701.338 0.102 2.355 0 4.71 0.205 7.066 0.205 10.65 0.205 18.842 5.222 25.805 12.8 4.506 4.915 6.451 10.957 8.909 16.896v86.016c-9.523 24.371-18.842 30.618-45.466 30.618z" />
<glyph unicode="19" glyph-name="reddit-filled" d="M512 673.28c-248.443 0-450.56-126.525-450.56-307.2s202.117-327.68 450.56-327.68 450.56 147.005 450.56 327.68-202.117 307.2-450.56 307.2zM286.72 427.52c0 33.935 27.505 61.44 61.44 61.44s61.44-27.505 61.44-61.44c0-33.915-27.505-61.44-61.44-61.44s-61.44 27.525-61.44 61.44zM715.121 231.424c-2.417-3.441-61.010-84.48-203.121-84.48-142.131 0-200.704 81.039-203.121 84.48-6.492 9.257-4.26 22.036 4.997 28.549 9.236 6.492 21.934 4.28 28.467-4.895 2.191-3.052 50.196-67.174 169.656-67.174 121.078 0 169.144 66.396 169.595 67.072 6.472 9.236 19.292 11.51 28.549 4.977 9.236-6.492 11.469-19.272 4.977-28.529zM675.84 366.080c-33.915 0-61.44 27.525-61.44 61.44 0 33.935 27.525 61.44 61.44 61.44s61.44-27.505 61.44-61.44c0-33.915-27.525-61.44-61.44-61.44zM972.616 492.093c20.173 42.004 13.066 92.815-22.2 128.082-21.709 21.709-50.115 33.649-80.015 33.649-17.715 0-34.693-4.649-50.278-12.575 68.71-38.072 121.569-89.211 152.494-149.156zM203.899 641.249c-15.606 7.926-32.584 12.575-50.299 12.575-29.901 0-58.327-11.94-80.015-33.649-35.267-35.267-42.373-86.098-22.2-128.082 30.925 59.945 83.784 111.084 152.515 149.156zM839.68 714.24c-45.179 0-81.92 36.762-81.92 81.92s36.741 81.92 81.92 81.92 81.92-36.762 81.92-81.92-36.741-81.92-81.92-81.92zM716.8 796.16c0 8.643 0.922 17.080 2.621 25.211-28.16 7.7-43.254 23.757-57.815 39.547-16.261 17.633-34.714 37.642-67.686 37.642-43.090 0-93.655-33.526-101.294-184.648 6.431 0.164 12.861 0.328 19.374 0.328 7.229 0 14.377-0.164 21.524-0.369 4.874 90.788 26.685 143.729 60.396 143.729 14.397 0 22.344-7.946 37.581-24.453 17.756-19.251 41.124-43.909 86.528-53.35-0.737 5.366-1.229 10.813-1.229 16.364z" />
<glyph unicode="18" glyph-name="history" d="M554.667 832c-212.053 0-384-171.947-384-384h-128l165.973-165.973 2.987-5.973 172.373 171.947h-128c0 165.12 133.547 298.667 298.667 298.667s298.667-133.547 298.667-298.667-133.547-298.667-298.667-298.667c-82.347 0-157.013 33.707-210.773 87.893l-60.587-60.587c69.547-69.547 165.12-112.64 271.36-112.64 212.053 0 384 171.947 384 384s-171.947 384-384 384zM512 618.667v-213.333l182.613-108.373 30.72 51.627-149.333 88.747v181.333h-64z" />
<glyph unicode="17" glyph-name="filter" d="M426.667 192h170.667v85.333h-170.667v-85.333zM128 704v-85.333h768v85.333h-768zM256 405.333h512v85.333h-512v-85.333z" />
<glyph unicode="16" glyph-name="expand" d="M956.723 89.395c-2.765 20.582-5.427 41.165-7.987 61.85-2.662 21.197-5.018 42.394-7.68 63.488l-8.704 69.939c-0.512 4.096-1.024 8.090-1.536 12.698-0.205 1.946-2.048 3.584-3.994 3.584h-80.282c-1.946 0-3.584-1.638-3.482-3.584 0.922-28.979 1.843-58.778 2.765-89.395 0.102-1.946-0.922-2.867-2.15-1.946-0.922 0.614-1.638 1.126-2.253 1.638l-141.517 108.339c-1.536 1.229-3.072 2.15-3.277 2.15s-1.843-0.717-3.584-1.741c-13.21-7.066-26.317-14.029-39.526-21.197-7.578-4.096-15.155-8.192-23.040-12.493-1.741-0.922-1.946-2.765-0.41-4.096 22.835-19.558 45.363-39.014 67.891-58.266 22.63-19.354 45.261-38.502 67.994-57.754 1.536-1.331 2.56-2.56 2.355-2.867s-1.946-0.41-3.994-0.307c-48.23 3.379-96.461 6.861-144.998 10.24-1.946 0.102-4.096-1.229-4.608-3.174-0.41-1.229-0.717-2.355-1.024-3.482l-18.944-68.198-0.307-0.717c-0.205-0.41-0.41-0.922-0.41-1.126s1.638-0.512 3.584-0.717l26.112-2.15 118.374-9.011c18.33-1.434 36.557-3.072 54.886-4.608l45.158-3.584c20.070-1.536 40.141-3.174 60.211-4.608 11.162-0.819 22.221-1.331 33.382-1.946 2.97-0.205 5.939-0.512 8.909-0.819h11.776c1.946 0 3.584 0.717 3.584 1.638s-0.205 3.277-0.614 5.222c-0.922 5.837-1.843 11.366-2.662 16.998zM429.261 95.027l-18.944 68.198c-0.307 1.126-0.614 2.253-1.024 3.482-0.614 1.946-2.662 3.277-4.608 3.174-48.538-3.482-96.768-6.861-144.998-10.24-1.946-0.102-3.789 0-3.994 0.307s0.922 1.536 2.355 2.867l67.994 57.754c22.63 19.251 45.158 38.707 67.891 58.266 1.536 1.331 1.331 3.174-0.41 4.096-7.885 4.301-15.462 8.397-23.040 12.493-13.107 7.066-26.317 14.131-39.526 21.197-1.741 0.922-3.379 1.741-3.584 1.741s-1.741-1.024-3.277-2.15l-5.837-4.506-135.68-103.834c-0.717-0.512-1.434-1.024-2.253-1.638-1.229-0.922-2.253 0-2.15 1.946 0.922 30.618 1.843 60.314 2.765 89.395 0.102 1.946-1.536 3.584-3.482 3.584h-80.282c-1.946 0-3.789-1.638-3.994-3.584-0.512-4.506-1.024-8.602-1.536-12.698l-8.704-69.939c-2.56-21.197-5.018-42.394-7.68-63.488-2.56-20.582-5.222-41.267-7.987-61.85-0.717-5.632-1.741-11.264-2.662-16.794-0.307-1.946-0.614-4.301-0.614-5.222s1.638-1.638 3.584-1.638h11.878c2.97 0.307 5.939 0.614 8.909 0.819 11.162 0.717 22.323 1.229 33.382 1.946 20.070 1.434 40.141 3.072 60.211 4.608 15.053 1.126 30.106 2.355 45.158 3.584l54.886 4.608c18.534 1.536 37.171 2.97 55.706 4.301l62.669 4.71c8.704 0.614 17.408 1.434 26.112 2.15 1.946 0.205 3.584 0.512 3.584 0.717s-0.205 0.717-0.41 1.126c-0.205 0-0.41 0.205-0.41 0.512zM594.739 800.87l18.944-68.198c0.307-1.126 0.614-2.253 1.024-3.482 0.614-1.946 2.662-3.277 4.608-3.174 48.538 3.482 96.768 6.861 144.998 10.24 1.946 0.102 3.789 0 3.994-0.307s-0.922-1.536-2.355-2.867l-67.994-57.754c-22.63-19.251-45.158-38.707-67.891-58.266-1.536-1.331-1.331-3.174 0.41-4.096 7.885-4.301 15.462-8.397 23.040-12.493 13.107-7.066 26.317-14.131 39.526-21.197 1.741-0.922 3.379-1.741 3.584-1.741s1.741 1.024 3.277 2.15l5.837 4.506 135.68 103.834c0.717 0.512 1.434 1.024 2.253 1.638 1.229 0.922 2.253 0 2.15-1.946-0.922-30.618-1.843-60.416-2.765-89.395-0.102-1.946 1.536-3.584 3.482-3.584h80.282c1.946 0 3.789 1.638 3.994 3.584 0.512 4.506 1.024 8.602 1.536 12.698l8.704 69.939c2.56 21.197 5.018 42.394 7.68 63.488 2.56 20.582 5.222 41.267 7.987 61.85 0.717 5.632 1.741 11.264 2.662 16.794 0.307 1.946 0.614 4.301 0.614 5.222s-1.638 1.638-3.584 1.638h-11.878c-2.97-0.307-5.939-0.614-8.909-0.819-11.162-0.717-22.323-1.229-33.382-1.946-20.070-1.434-40.141-3.072-60.211-4.608-15.053-1.126-30.106-2.355-45.158-3.584l-54.886-4.608c-18.534-1.536-37.171-2.97-55.706-4.301l-62.669-4.71c-8.704-0.614-17.408-1.434-26.112-2.15-1.946-0.205-3.584-0.512-3.584-0.717s0.205-0.717 0.41-1.126c0.205 0 0.41-0.205 0.41-0.512zM400.282 805.581l-118.374 9.011c-18.33 1.434-36.557 3.072-54.886 4.608l-45.158 3.584c-20.070 1.536-40.141 3.174-60.211 4.608-11.162 0.819-22.221 1.331-33.382 1.946-2.97 0.205-5.939 0.512-8.909 0.819h-11.776c-1.946 0-3.584-0.717-3.584-1.638s0.205-3.277 0.614-5.222c0.922-5.632 1.946-11.162 2.662-16.794 2.765-20.582 5.427-41.165 7.987-61.85 2.662-21.197 5.018-42.394 7.68-63.488l8.704-69.939c0.512-4.096 1.024-8.090 1.536-12.698 0.205-1.946 2.048-3.584 3.994-3.584h80.282c1.946 0 3.584 1.638 3.482 3.584-0.922 28.979-1.843 58.778-2.765 89.395-0.102 1.946 0.922 2.867 2.15 1.946 0.922-0.614 1.638-1.126 2.253-1.638l141.517-108.339c1.536-1.229 3.072-2.15 3.277-2.15s1.843 0.717 3.584 1.741l39.526 21.197c7.578 4.096 15.155 8.192 23.040 12.493 1.741 0.922 1.946 2.765 0.41 4.096-22.835 19.558-45.363 39.014-67.891 58.266-22.63 19.354-45.261 38.502-67.994 57.754-1.536 1.331-2.56 2.56-2.355 2.867s1.946 0.41 3.994 0.307c48.23-3.379 96.461-6.861 144.998-10.24 1.946-0.102 4.096 1.331 4.608 3.174 0.41 1.229 0.717 2.355 1.024 3.482l18.944 68.198 0.307 0.717c0.205 0.41 0.41 0.922 0.41 1.126s-1.638 0.512-3.584 0.717c-8.704 0.512-17.408 1.331-26.112 1.946z" />
<glyph unicode="15" glyph-name="logout" d="M430.507 294.827l60.16-60.16 213.333 213.333-213.333 213.333-60.16-60.16 110.080-110.507h-412.587v-85.333h412.587l-110.080-110.507zM810.667 832h-597.333c-47.36 0-85.333-38.4-85.333-85.333v-170.667h85.333v170.667h597.333v-597.333h-597.333v170.667h-85.333v-170.667c0-46.933 37.973-85.333 85.333-85.333h597.333c46.933 0 85.333 38.4 85.333 85.333v597.333c0 46.933-38.4 85.333-85.333 85.333z" />
<glyph unicode="14" glyph-name="comment" d="M957.747 843.264c-4.096 25.805-16.794 37.581-42.598 39.424-11.366 0.922-22.63 1.331-33.997 1.331-247.706 0.41-494.899 0.41-742.502 0-13.619 0-27.136-1.331-40.346-3.584-18.534-3.174-28.058-16.282-31.744-33.997-1.331-9.933-2.765-19.968-2.765-29.901v-502.989c0-7.68 0.41-15.872 1.331-23.552 5.018-29.389 16.282-40.346 46.182-41.165 56.627-0.922 113.152-0.922 170.189-1.331h18.125v-207.77c0-9.933-0.41-20.787 10.854-25.805 11.366-5.427 18.534 1.843 26.214 9.011 79.258 72.397 158.003 144.896 237.67 216.883 5.018 4.506 13.619 7.27 20.787 7.27 97.792 0.922 195.584 0.41 293.376 0.922 13.107 0 26.726 1.331 39.834 3.584 16.794 3.174 25.805 14.438 28.57 30.822 1.331 9.933 2.765 20.378 2.765 30.822v504.218c0.307 8.602-0.614 17.203-1.946 25.805zM206.131 600.166h305.152v-68.813h-305.152v68.813zM700.109 390.042h-493.978v68.813h493.978v-68.813zM817.869 673.075h-611.738v68.403h611.635v-68.403z" />
<glyph unicode="13" glyph-name="clouds" d="M913.715 473.907c-48.435 47.104-105.984 60.621-170.291 36.966-12.083-4.403-16.896-4.71-22.426 9.011-36.557 90.931-115.2 146.125-208.077 150.323-42.598 20.89-93.491 27.136-145.203 21.197-106.086-12.39-189.645-96.154-209.203-209.715-1.126-6.861-0.205-15.462-8.397-18.944-18.842-7.987-33.587-19.251-45.773-32.768l-0.102 0.307s-88.986-84.275-1.946-181.248c2.458-2.765 4.813-5.632 7.475-8.294l1.126-1.229 0.102 0.205c21.197-20.275 48.23-32.461 81.408-35.533 23.142-2.15 92.16-1.843 135.27-1.638 24.576-0.512 49.254 0.922 73.83 0.205l280.781 0.41c42.701 0 81.408-1.024 119.91 0.307 68.096 2.355 117.248 35.226 144.691 97.485 25.805 58.88 13.005 128-33.178 172.954zM271.462 468.685c-1.126-6.554-0.205-14.746-8.090-18.022-17.92-7.578-32.051-18.33-43.725-31.232l-0.102 0.307s-84.89-80.384-1.843-173.056c2.355-2.662 4.608-5.325 7.066-7.885l1.126-1.229 0.102 0.205c20.173-19.354 45.978-31.027 77.619-33.894 4.403-0.41 8.806-0.41 13.107-0.717-24.166 0.307-51.098 0.614-54.682 1.024-31.642 2.867-57.446 14.541-77.619 33.894l-0.102-0.205-1.126 1.229c-2.56 2.458-4.71 5.222-7.066 7.885-83.046 92.672 1.843 173.056 1.843 173.056l0.102-0.307c11.674 12.902 25.702 23.654 43.725 31.232 7.885 3.277 6.963 11.571 8.090 18.022 18.739 108.339 98.509 188.314 199.68 200.090 24.781 2.867 50.483 4.096 74.138 1.024-10.752 0.102-21.504 0-32.563-1.229-101.376-11.878-181.043-91.853-199.68-200.192z" />
<glyph unicode="12" glyph-name="cloud" d="M880.742 505.344c-21.402 17.408-29.901 35.533-33.587 62.669-12.288 92.672-65.843 157.286-151.654 189.952-89.293 33.894-176.538 24.371-251.392-39.424-22.118-18.842-41.574-25.805-70.861-23.552-94.413 7.475-171.213-50.381-197.325-141.107-4.301-15.155-14.234-31.232-26.317-41.165-76.8-63.795-104.653-155.648-72.704-247.398 31.334-90.214 112.026-145.92 211.968-146.125 74.65-0.102 149.299 0 223.949 0 75.981 0 151.962-0.307 227.942 0.102 93.798 0.41 174.797 57.446 205.824 144.077 31.437 87.245 6.554 182.989-65.843 241.971zM920.269 281.395c-24.883-79.053-95.744-130.765-180.838-131.174-74.547-0.307-149.197-0.102-223.744-0.102-75.878 0-151.859-0.102-227.738 0-88.064 0.205-159.539 51.507-184.32 131.994-25.293 81.818 3.994 161.485 75.674 214.016 12.083 8.909 22.733 25.498 25.702 40.243 17.715 86.938 94.413 142.746 182.886 125.952 26.931-5.12 41.574-0.819 60.826 18.944 66.662 68.301 149.709 80.998 235.52 48.026 82.125-31.642 130.458-95.334 133.837-185.958 0.922-24.474 9.318-37.683 28.877-51.098 70.246-48.128 98.202-131.584 73.318-210.842zM801.28 474.829c-9.728 5.325-20.582 20.275-20.275 30.515 2.56 92.877-39.219 163.123-115.814 189.747-85.402 29.696-161.69 1.946-217.6-79.053-2.97-4.301-6.451-8.090-11.059-13.722-106.291 52.531-181.555 11.366-196.301-102.298-1.331-10.138-12.186-21.914-21.811-27.546-67.277-38.81-97.178-101.683-79.462-170.701 17.715-69.12 74.752-111.411 151.245-111.411 146.739-0.205 293.376-0.102 440.115 0 79.462 0.102 137.933 42.291 155.238 111.821 17.306 69.734-15.36 134.656-84.275 172.646z" />
<glyph unicode="11" glyph-name="close-circled" d="M720.282 602.317c6.144 6.246 6.144 16.486-0.102 22.733l-34.406 34.714c-6.144 6.246-16.179 6.144-22.426-0.102-46.49-47.411-92.979-94.72-140.083-142.643-6.144-6.246-16.179-6.246-22.426 0-46.899 47.616-93.594 95.027-140.186 142.541-6.144 6.246-16.179 6.246-22.323-0.102-11.264-11.674-22.528-23.347-33.997-35.226-6.042-6.349-6.042-16.589 0.205-22.835 45.466-46.285 92.16-93.901 139.571-142.131 6.144-6.246 6.144-16.486 0-22.733-47.002-47.821-93.901-95.539-140.39-142.848-6.144-6.246-6.042-16.486 0.102-22.63l34.509-34.611c6.246-6.246 16.282-6.246 22.528 0l140.083 142.234c6.144 6.246 16.179 6.246 22.426 0 46.694-47.514 93.082-94.822 140.083-142.438 6.144-6.246 16.179-6.246 22.426 0 11.571 11.674 22.835 23.245 34.304 34.816 6.144 6.246 6.144 16.486 0 22.733-46.080 46.899-92.672 94.413-140.083 142.643-6.144 6.246-6.144 16.486 0 22.835 46.899 47.923 93.696 95.642 140.186 143.053zM512 896c-247.398 0-448-200.602-448-448s200.602-448 448-448 448 200.602 448 448-200.602 448-448 448zM512 70.554c-208.384 0-377.446 169.062-377.446 377.446s169.062 377.446 377.446 377.446 377.446-169.062 377.446-377.446-169.062-377.446-377.446-377.446z" />
<glyph unicode="10" glyph-name="check-circled" d="M703.795 653.619c-3.891 3.686-9.933 3.482-13.619-0.41-85.094-90.317-169.984-180.326-255.181-270.746-3.686-3.891-9.626-3.994-13.414-0.205l-90.522 90.522c-3.789 3.789-9.83 3.789-13.619 0l-54.784-54.784c-3.789-3.789-3.789-9.83 0-13.619l161.894-161.894c3.789-3.789 9.83-3.686 13.414 0.205 107.622 114.176 215.552 228.557 323.686 343.245 3.686 3.891 3.482 9.933-0.41 13.619-19.251 18.125-38.298 36.045-57.446 54.067zM512 896c-247.398 0-448-200.602-448-448s200.602-448 448-448 448 200.602 448 448-200.602 448-448 448zM512 70.554c-208.384 0-377.446 169.062-377.446 377.446s169.062 377.446 377.446 377.446c208.384 0 377.446-169.062 377.446-377.446s-169.062-377.446-377.446-377.446z" />
<glyph unicode="09" glyph-name="caret-up" d="M547.123 588.493l260.915-260.915c19.354-19.354 12.902-35.123-14.541-35.123h-562.995c-27.443 0-33.894 15.667-14.541 35.123l260.915 260.915c19.456 19.354 50.79 19.354 70.246 0z" />
<glyph unicode="08" glyph-name="caret-right" d="M652.493 483.123l-260.915 260.915c-19.354 19.456-35.123 12.902-35.123-14.541v-562.995c0-27.443 15.77-33.894 35.123-14.541l260.915 260.915c19.354 19.354 19.354 50.893 0 70.246z" />
<glyph unicode="07" glyph-name="caret-left" d="M370.995 483.021l260.915 260.915c19.354 19.354 35.123 12.902 35.123-14.541v-562.995c0-27.443-15.77-33.894-35.123-14.541l-260.915 261.018c-19.354 19.354-19.354 50.79 0 70.144z" />
<glyph unicode="06" glyph-name="caret-down" d="M547.123 307.2l260.915 260.915c19.354 19.354 12.902 35.123-14.541 35.123h-562.995c-27.443 0-33.894-15.667-14.541-35.123l260.915-260.915c19.456-19.354 50.79-19.354 70.246 0z" />
<glyph unicode="05" glyph-name="crypto" d="M761.344 356.045c-7.578 20.48-18.125 38.4-31.334 54.067s-29.389 28.365-48.333 38.4-39.322 16.486-61.338 19.149v2.15c36.557 11.776 66.048 31.232 88.678 58.163 22.63 27.034 33.894 61.338 33.894 102.912 0 33.28-6.349 61.645-19.046 85.094-12.595 23.552-29.082 42.701-49.254 57.651-20.275 14.848-43.418 25.6-69.222 32.154-10.24 2.56-20.48 4.608-30.822 6.144v84.070h-85.299v-80.384h-37.786v80.384h-85.299v-80.384h-114.483v-735.232h114.381v-80.384h85.299v80.384h37.786v-80.384h85.299v85.606c9.83 1.434 19.661 3.174 29.389 5.222 32.154 6.861 60.723 18.534 85.606 34.816 24.986 16.179 44.954 37.683 60.314 64.307 15.258 26.726 22.835 60.109 22.835 100.25 0.102 23.45-3.686 45.568-11.264 65.843zM585.011 680.141c21.606-15.565 32.358-39.322 32.358-71.066 0-27.648-10.445-49.971-31.334-67.072-20.89-16.998-52.326-25.498-94.106-25.498h-114.688v186.982h103.629c47.821 0 82.534-7.782 104.141-23.347zM632.32 242.893c-9.933-14.131-22.63-25.088-37.888-32.666-15.36-7.578-32.051-12.493-50.381-14.541-18.33-2.15-35.328-3.174-51.302-3.174h-115.507v211.866h120.525c51.2 0 88.781-7.578 113.050-22.835 24.269-15.36 36.25-42.291 36.25-80.998 0.205-24.269-4.813-43.418-14.746-57.651z" />
<glyph unicode="04" glyph-name="arrow-up" d="M437.555 163.942v351.539l-130.56-130.56c-9.011-9.011-23.654-9.011-32.666 0l-54.886 54.886c-9.011 9.011-9.011 23.654 0 32.666l275.968 275.968c9.011 9.011 23.654 9.011 32.666 0l275.968-275.968c9.011-9.011 9.011-23.654 0-32.666l-54.886-54.886c-9.011-9.011-23.654-9.011-32.666 0l-140.186 140.083v-361.165c0-12.8-10.342-23.142-23.142-23.142h-92.57c-12.698 0.102-23.040 10.547-23.040 23.245z" />
<glyph unicode="03" glyph-name="arrow-right" d="M227.942 522.138h351.539l-130.56 130.56c-9.011 9.011-9.011 23.654 0 32.666l54.886 54.886c9.011 9.011 23.654 9.011 32.666 0l275.968-275.866c9.011-9.011 9.011-23.654 0-32.666l-275.968-275.968c-9.011-9.011-23.654-9.011-32.666 0l-54.886 54.886c-9.011 9.011-9.011 23.654 0 32.666l140.186 140.186h-361.165c-12.8 0-23.142 10.342-23.142 23.142v92.467c0 12.698 10.342 23.040 23.142 23.040z" />
<glyph unicode="02" glyph-name="arrow-left" d="M796.058 522.138h-351.539l130.56 130.56c9.011 9.011 9.011 23.654 0 32.666l-54.886 54.886c-9.011 9.011-23.654 9.011-32.666 0l-275.968-275.866c-9.011-9.011-9.011-23.654 0-32.666l275.968-275.968c9.011-9.011 23.654-9.011 32.666 0l54.886 54.886c9.011 9.011 9.011 23.654 0 32.666l-140.186 140.083h361.165c12.8 0 23.142 10.342 23.142 23.142v92.467c0 12.8-10.342 23.142-23.142 23.142z" />
<glyph unicode="01" glyph-name="apps" d="M170.667 618.667h170.667v170.667h-170.667v-170.667zM426.667 106.667h170.667v170.667h-170.667v-170.667zM170.667 106.667h170.667v170.667h-170.667v-170.667zM170.667 362.667h170.667v170.667h-170.667v-170.667zM426.667 362.667h170.667v170.667h-170.667v-170.667zM682.667 789.333v-170.667h170.667v170.667h-170.667zM426.667 618.667h170.667v170.667h-170.667v-170.667zM682.667 362.667h170.667v170.667h-170.667v-170.667zM682.667 106.667h170.667v170.667h-170.667v-170.667z" />
</font>
</defs>
</svg>
